<svg width="16" height="16" viewBox="0 0 16 16" fill="none" xmlns="http://www.w3.org/2000/svg">
<path d="M11.6837 2.66777C10.6191 1.74887 9.21864 1.27695 7.74742 1.3389C4.98428 1.45513 2.70581 3.58702 2.66843 6.09122C2.64792 7.49822 3.3057 8.8398 4.47326 9.77198C4.59872 9.87217 4.6967 9.9948 4.76339 10.13H7.53084V8.50119C7.34004 8.35863 7.15551 8.22247 6.98182 8.09508C5.68528 7.14434 5.01185 6.61216 5.01185 5.78779C5.01185 4.97393 5.66839 4.33633 6.5066 4.33633C6.96125 4.33633 7.32891 4.50594 7.63067 4.85493L8.00138 5.28388L8.37209 4.85493C8.67385 4.50592 9.04151 4.33633 9.49616 4.33633C10.3344 4.33633 10.9909 4.97396 10.9909 5.78779C10.9909 6.61218 10.3175 7.14437 9.02705 8.09064C8.84973 8.22064 8.66356 8.35797 8.47192 8.50117V10.13H11.2374C11.3025 9.99648 11.398 9.87651 11.52 9.77955C12.6732 8.86331 13.3346 7.54306 13.3346 6.1574C13.3347 4.82637 12.7483 3.58702 11.6837 2.66777Z" fill="white"/>
<path d="M4.86719 11.0371V11.4908C4.86719 12.0865 5.26873 12.5885 5.82262 12.7725C5.87237 13.2194 6.0666 13.6443 6.38432 13.9788C6.79945 14.4158 7.38984 14.6666 8.00444 14.6666C8.61902 14.6666 9.20938 14.4158 9.62454 13.9788C9.94226 13.6444 10.1365 13.2195 10.1862 12.7725C10.7402 12.5885 11.1417 12.0865 11.1417 11.4908V11.0371H4.86719V11.0371Z" fill="white"/>
</svg>
