<svg width="375" height="274" viewBox="0 0 375 274" fill="none" xmlns="http://www.w3.org/2000/svg">
<g filter="url(#filter0_d_1495_26383)">
<rect width="15.3579" height="15.3579" rx="7.67896" transform="matrix(1 0 -0.0742825 0.997237 71.2188 59.5249)" fill="#F6F9FF"/>
<circle cx="4.47653" cy="4.47653" r="4.47653" transform="matrix(1 0 -0.0742825 0.997237 74.1836 62.7183)" fill="#5171D0"/>
<path d="M78.4375 65.6943L78.2158 68.6704" stroke="white" stroke-width="0.462501" stroke-linecap="round"/>
<path d="M76.8359 67.1816H79.8203" stroke="white" stroke-width="0.462501" stroke-linecap="round"/>
<path d="M94.4405 75.1254L94.7238 71.322H95.4269C95.6847 71.1024 95.9351 70.7925 96.178 70.3924C96.4247 69.9887 96.6476 69.4504 96.8469 68.7775C97.05 68.1011 97.2152 67.2424 97.3424 66.2012L97.9187 61.6117H104.396L103.673 71.322H104.93L104.648 75.1041H103.391L103.586 72.4906H95.8938L95.6976 75.1254H94.4405ZM97.0036 71.322H102.416L103.052 62.7803H99.0248L98.5995 66.2012C98.4978 66.9945 98.3697 67.7134 98.2152 68.3579C98.0609 68.9989 97.8818 69.5672 97.678 70.063C97.4744 70.5553 97.2496 70.9749 97.0036 71.322ZM109.98 72.6606C109.241 72.6606 108.606 72.4853 108.075 72.1347C107.547 71.7841 107.15 71.2936 106.884 70.6633C106.622 70.0329 106.523 69.2963 106.586 68.4535C106.649 67.6036 106.859 66.8617 107.215 66.2278C107.575 65.5939 108.044 65.1016 108.625 64.751C109.208 64.4004 109.869 64.2252 110.608 64.2252C111.347 64.2252 111.98 64.4004 112.508 64.751C113.039 65.1016 113.436 65.5939 113.697 66.2278C113.963 66.8617 114.064 67.6036 114 68.4535C113.938 69.2963 113.726 70.0329 113.367 70.6633C113.011 71.2936 112.541 71.7841 111.958 72.1347C111.378 72.4853 110.718 72.6606 109.98 72.6606ZM110.064 71.5344C110.625 71.5344 111.097 71.391 111.481 71.1042C111.864 70.8173 112.16 70.4402 112.369 69.9727C112.578 69.5053 112.703 68.9989 112.743 68.4535C112.784 67.9081 112.735 67.4 112.596 66.929C112.457 66.458 112.217 66.0773 111.877 65.7869C111.536 65.4965 111.085 65.3513 110.524 65.3513C109.963 65.3513 109.491 65.4965 109.107 65.7869C108.723 66.0773 108.426 66.458 108.217 66.929C108.008 67.4 107.883 67.9081 107.843 68.4535C107.802 68.9989 107.851 69.5053 107.991 69.9727C108.13 70.4402 108.37 70.8173 108.711 71.1042C109.051 71.391 109.502 71.5344 110.064 71.5344ZM124.462 61.6117L123.651 72.4906H122.33L123.038 62.9928H122.974L120.179 64.7564L120.279 63.4177L123.141 61.6117H124.462ZM130.336 72.6393C129.533 72.6393 128.866 72.4215 128.334 71.986C127.802 71.5468 127.418 70.9112 127.181 70.079C126.945 69.2432 126.871 68.2339 126.96 67.0511C127.047 65.8754 127.271 64.8714 127.631 64.0392C127.995 63.2035 128.476 62.566 129.073 62.1269C129.675 61.6843 130.373 61.4629 131.168 61.4629C131.964 61.4629 132.627 61.6843 133.159 62.1269C133.695 62.566 134.08 63.2035 134.316 64.0392C134.556 64.8714 134.632 65.8754 134.545 67.0511C134.457 68.2339 134.232 69.2432 133.872 70.079C133.511 70.9112 133.033 71.5468 132.435 71.986C131.838 72.4215 131.138 72.6393 130.336 72.6393ZM130.423 71.4707C131.218 71.4707 131.865 71.0882 132.362 70.3233C132.859 69.5584 133.161 68.4677 133.266 67.0511C133.337 66.1091 133.295 65.307 133.142 64.6448C132.992 63.9826 132.742 63.4779 132.392 63.1309C132.045 62.7838 131.608 62.6103 131.083 62.6103C130.295 62.6103 129.65 62.9981 129.148 63.7736C128.647 64.5456 128.343 65.6381 128.238 67.0511C128.168 67.9931 128.208 68.7935 128.357 69.4521C128.507 70.1108 128.756 70.6119 129.103 70.9554C129.454 71.2989 129.894 71.4707 130.423 71.4707ZM139.711 72.6393C138.908 72.6393 138.241 72.4215 137.709 71.986C137.177 71.5468 136.793 70.9112 136.556 70.079C136.32 69.2432 136.246 68.2339 136.335 67.0511C136.422 65.8754 136.646 64.8714 137.006 64.0392C137.37 63.2035 137.851 62.566 138.448 62.1269C139.05 61.6843 139.748 61.4629 140.543 61.4629C141.339 61.4629 142.002 61.6843 142.534 62.1269C143.07 62.566 143.455 63.2035 143.691 64.0392C143.931 64.8714 144.007 65.8754 143.92 67.0511C143.832 68.2339 143.607 69.2432 143.247 70.079C142.886 70.9112 142.408 71.5468 141.81 71.986C141.213 72.4215 140.513 72.6393 139.711 72.6393ZM139.798 71.4707C140.593 71.4707 141.24 71.0882 141.737 70.3233C142.234 69.5584 142.536 68.4677 142.641 67.0511C142.712 66.1091 142.67 65.307 142.517 64.6448C142.367 63.9826 142.117 63.4779 141.767 63.1309C141.42 62.7838 140.983 62.6103 140.458 62.6103C139.67 62.6103 139.025 62.9981 138.523 63.7736C138.022 64.5456 137.718 65.6381 137.613 67.0511C137.543 67.9931 137.583 68.7935 137.732 69.4521C137.882 70.1108 138.131 70.6119 138.478 70.9554C138.829 71.2989 139.269 71.4707 139.798 71.4707ZM149.779 72.4906L150.387 64.3314H156.821L156.213 72.4906H154.956L155.477 65.5H151.557L151.036 72.4906H149.779ZM158.281 75.5503L159.117 64.3314H160.331L160.235 65.6275H160.384C160.487 65.4859 160.628 65.3053 160.808 65.0857C160.992 64.8626 161.244 64.6643 161.566 64.4908C161.892 64.3137 162.321 64.2252 162.854 64.2252C163.543 64.2252 164.137 64.3969 164.637 64.7404C165.137 65.0839 165.511 65.5709 165.759 66.2012C166.006 66.8316 166.098 67.5752 166.035 68.4322C165.97 69.2963 165.767 70.0453 165.425 70.6792C165.083 71.3096 164.639 71.7983 164.091 72.1453C163.543 72.4888 162.928 72.6606 162.247 72.6606C161.721 72.6606 161.307 72.5738 161.004 72.4003C160.701 72.2232 160.472 72.0232 160.318 71.8C160.165 71.5734 160.048 71.3857 159.966 71.237H159.86L159.538 75.5503H158.281ZM160.049 68.411C160.003 69.0272 160.053 69.5708 160.199 70.0418C160.345 70.5092 160.583 70.8758 160.911 71.1414C161.239 71.4034 161.656 71.5344 162.16 71.5344C162.686 71.5344 163.134 71.3963 163.507 71.1201C163.883 70.8403 164.177 70.465 164.389 69.994C164.606 69.5194 164.736 68.9918 164.779 68.411C164.822 67.8373 164.772 67.3203 164.628 66.8599C164.489 66.396 164.252 66.0295 163.916 65.7603C163.585 65.4876 163.153 65.3513 162.621 65.3513C162.109 65.3513 161.67 65.4806 161.303 65.7391C160.936 65.994 160.646 66.3517 160.434 66.8121C160.223 67.2689 160.094 67.8019 160.049 68.411ZM170.961 72.6606C170.222 72.6606 169.587 72.4853 169.056 72.1347C168.528 71.7841 168.131 71.2936 167.866 70.6633C167.604 70.0329 167.504 69.2963 167.567 68.4535C167.63 67.6036 167.84 66.8617 168.196 66.2278C168.556 65.5939 169.026 65.1016 169.606 64.751C170.19 64.4004 170.851 64.2252 171.589 64.2252C172.328 64.2252 172.961 64.4004 173.489 64.751C174.021 65.1016 174.417 65.5939 174.679 66.2278C174.944 66.8617 175.045 67.6036 174.982 68.4535C174.919 69.2963 174.708 70.0329 174.348 70.6633C173.993 71.2936 173.523 71.7841 172.939 72.1347C172.359 72.4853 171.7 72.6606 170.961 72.6606ZM171.045 71.5344C171.606 71.5344 172.078 71.391 172.462 71.1042C172.846 70.8173 173.142 70.4402 173.351 69.9727C173.559 69.5053 173.684 68.9989 173.725 68.4535C173.765 67.9081 173.716 67.4 173.577 66.929C173.438 66.458 173.199 66.0773 172.858 65.7869C172.517 65.4965 172.067 65.3513 171.506 65.3513C170.944 65.3513 170.472 65.4965 170.088 65.7869C169.704 66.0773 169.408 66.458 169.199 66.929C168.99 67.4 168.865 67.9081 168.824 68.4535C168.784 68.9989 168.833 69.5053 168.972 69.9727C169.111 70.4402 169.351 70.8173 169.692 71.1042C170.033 71.391 170.484 71.5344 171.045 71.5344ZM180.018 72.6606C179.229 72.6606 178.562 72.4871 178.016 72.14C177.474 71.7894 177.072 71.3007 176.81 70.6739C176.552 70.0435 176.453 69.3105 176.516 68.4747C176.578 67.639 176.785 66.9024 177.138 66.265C177.495 65.624 177.962 65.1246 178.539 64.767C179.12 64.4058 179.78 64.2252 180.518 64.2252C180.944 64.2252 181.36 64.296 181.765 64.4376C182.17 64.5793 182.531 64.8095 182.848 65.1282C183.165 65.4434 183.406 65.8612 183.57 66.3818C183.733 66.9024 183.787 67.5434 183.73 68.3048L183.69 68.836H177.384L177.464 67.7523H182.493C182.527 67.2919 182.465 66.8811 182.308 66.5199C182.153 66.1587 181.915 65.8736 181.594 65.6647C181.275 65.4558 180.889 65.3513 180.434 65.3513C179.934 65.3513 179.491 65.4752 179.107 65.7231C178.727 65.9675 178.424 66.2862 178.199 66.6793C177.975 67.0724 177.846 67.4938 177.812 67.9435L177.759 68.666C177.713 69.2822 177.78 69.8045 177.961 70.233C178.146 70.658 178.422 70.982 178.789 71.2051C179.156 71.4247 179.594 71.5344 180.102 71.5344C180.432 71.5344 180.734 71.4884 181.007 71.3963C181.284 71.3007 181.527 71.1591 181.736 70.9714C181.946 70.7801 182.114 70.5429 182.242 70.2596L183.431 70.5995C183.273 71.0103 183.031 71.3715 182.706 71.6832C182.381 71.9913 181.99 72.2321 181.534 72.4056C181.077 72.5756 180.572 72.6606 180.018 72.6606ZM185.331 72.4906L185.938 64.3314H187.195L186.931 67.8798H187.762L190.967 64.3314H192.586L188.991 68.2623L192.021 72.4906H190.402L187.973 69.0484H186.844L186.588 72.4906H185.331ZM193.439 65.5L193.526 64.3314H200.174L200.087 65.5H197.402L196.881 72.4906H195.624L196.145 65.5H193.439ZM204.286 72.6606C203.548 72.6606 202.913 72.4853 202.381 72.1347C201.853 71.7841 201.457 71.2936 201.191 70.6633C200.929 70.0329 200.829 69.2963 200.892 68.4535C200.956 67.6036 201.165 66.8617 201.521 66.2278C201.881 65.5939 202.351 65.1016 202.931 64.751C203.515 64.4004 204.176 64.2252 204.915 64.2252C205.653 64.2252 206.286 64.4004 206.814 64.751C207.346 65.1016 207.742 65.5939 208.004 66.2278C208.269 66.8617 208.37 67.6036 208.307 68.4535C208.244 69.2963 208.033 70.0329 207.674 70.6633C207.318 71.2936 206.848 71.7841 206.264 72.1347C205.684 72.4853 205.025 72.6606 204.286 72.6606ZM204.37 71.5344C204.931 71.5344 205.404 71.391 205.787 71.1042C206.171 70.8173 206.467 70.4402 206.676 69.9727C206.885 69.5053 207.009 68.9989 207.05 68.4535C207.091 67.9081 207.041 67.4 206.902 66.929C206.764 66.458 206.524 66.0773 206.183 65.7869C205.843 65.4965 205.392 65.3513 204.831 65.3513C204.27 65.3513 203.797 65.4965 203.413 65.7869C203.029 66.0773 202.733 66.458 202.524 66.929C202.315 67.4 202.19 67.9081 202.149 68.4535C202.109 68.9989 202.158 69.5053 202.297 69.9727C202.436 70.4402 202.676 70.8173 203.017 71.1042C203.358 71.391 203.809 71.5344 204.37 71.5344ZM209.925 72.4906L210.533 64.3314H213.878C214.759 64.3314 215.444 64.5297 215.933 64.9263C216.422 65.323 216.642 65.8471 216.593 66.4987C216.556 66.9945 216.38 67.3787 216.065 67.6514C215.75 67.9205 215.359 68.1029 214.89 68.1985C215.189 68.241 215.474 68.3473 215.745 68.5172C216.02 68.6872 216.241 68.9209 216.407 69.2184C216.573 69.5124 216.64 69.8736 216.608 70.3021C216.577 70.7199 216.443 71.0936 216.205 71.4229C215.967 71.7522 215.643 72.0125 215.231 72.2038C214.819 72.395 214.336 72.4906 213.782 72.4906H209.925ZM211.204 71.3432H213.867C214.3 71.3432 214.647 71.2405 214.908 71.0351C215.168 70.8297 215.311 70.55 215.338 70.1958C215.369 69.7744 215.271 69.4433 215.044 69.2025C214.817 68.9581 214.487 68.836 214.054 68.836H211.391L211.204 71.3432ZM211.471 67.7523H213.623C213.961 67.7523 214.254 67.7063 214.502 67.6142C214.751 67.5186 214.945 67.384 215.086 67.2105C215.231 67.0334 215.312 66.8245 215.33 66.5837C215.355 66.2402 215.232 65.971 214.958 65.7763C214.686 65.5779 214.297 65.4788 213.793 65.4788H211.641L211.471 67.7523Z" fill="white"/>
<rect width="15.3579" height="15.3579" rx="7.67896" transform="matrix(1 0 -0.0742825 0.997237 68.918 90.439)" fill="#F6F9FF"/>
<circle cx="4.47653" cy="4.47653" r="4.47653" transform="matrix(1 0 -0.0742825 0.997237 71.8828 93.6323)" fill="#5171D0"/>
<path d="M76.1367 96.6084L75.915 99.5845" stroke="white" stroke-width="0.462501" stroke-linecap="round"/>
<path d="M74.5352 98.0957H77.5195" stroke="white" stroke-width="0.462501" stroke-linecap="round"/>
<path d="M93.2734 103.405L94.0838 92.5257H97.8977C98.6577 92.5257 99.2747 92.6567 99.7488 92.9188C100.223 93.1773 100.565 93.5261 100.773 93.9653C100.982 94.4008 101.067 94.8842 101.028 95.4154C100.993 95.8829 100.881 96.2689 100.691 96.5735C100.505 96.878 100.27 97.1188 99.9874 97.2959C99.7078 97.4729 99.4087 97.604 99.0898 97.689L99.0819 97.7952C99.4141 97.8165 99.741 97.9333 100.063 98.1458C100.384 98.3583 100.644 98.6628 100.841 99.0595C101.039 99.4561 101.117 99.9413 101.074 100.515C101.033 101.06 100.872 101.551 100.591 101.986C100.31 102.422 99.8923 102.767 99.3371 103.022C98.7819 103.277 98.0746 103.405 97.2152 103.405H93.2734ZM94.6815 102.236H97.3023C98.1652 102.236 98.7902 102.07 99.1772 101.737C99.568 101.4 99.7812 100.993 99.8168 100.515C99.8443 100.147 99.7755 99.8067 99.6105 99.495C99.4457 99.1799 99.1964 98.9284 98.8623 98.7407C98.5286 98.5495 98.1238 98.4539 97.6479 98.4539H94.9632L94.6815 102.236ZM95.0487 97.3065H97.499C97.8967 97.3065 98.2612 97.2286 98.5924 97.0728C98.9272 96.917 99.1992 96.6974 99.4085 96.4141C99.6214 96.1308 99.7421 95.7979 99.7705 95.4154C99.8062 94.9374 99.6695 94.5319 99.3604 94.199C99.0517 93.8626 98.5351 93.6944 97.8107 93.6944H95.3178L95.0487 97.3065ZM106.17 103.575C105.403 103.575 104.756 103.394 104.229 103.033C103.702 102.672 103.313 102.174 103.062 101.54C102.811 100.906 102.715 100.182 102.776 99.3676C102.838 98.5389 103.045 97.8076 103.398 97.1737C103.754 96.5363 104.221 96.0387 104.798 95.681C105.379 95.3198 106.038 95.1392 106.777 95.1392C107.352 95.1392 107.863 95.2455 108.309 95.4579C108.755 95.6704 109.111 95.9679 109.377 96.3503C109.643 96.7328 109.793 97.179 109.826 97.689H108.569C108.501 97.3171 108.312 96.9878 108.003 96.7009C107.698 96.4106 107.268 96.2654 106.715 96.2654C106.224 96.2654 105.785 96.3928 105.397 96.6478C105.012 96.8993 104.7 97.2552 104.46 97.7155C104.223 98.1724 104.082 98.7089 104.036 99.3251C103.989 99.9554 104.048 100.504 104.212 100.972C104.38 101.439 104.637 101.802 104.983 102.061C105.333 102.319 105.757 102.449 106.254 102.449C106.581 102.449 106.881 102.392 107.156 102.279C107.431 102.165 107.669 102.002 107.869 101.79C108.07 101.577 108.22 101.322 108.32 101.025H109.577C109.47 101.507 109.262 101.94 108.953 102.326C108.648 102.709 108.257 103.013 107.782 103.24C107.311 103.463 106.774 103.575 106.17 103.575ZM114.655 103.575C113.867 103.575 113.2 103.401 112.654 103.054C112.112 102.703 111.71 102.215 111.448 101.588C111.189 100.958 111.091 100.225 111.153 99.3888C111.216 98.5531 111.423 97.8165 111.776 97.179C112.133 96.538 112.6 96.0387 113.177 95.681C113.758 95.3198 114.417 95.1392 115.156 95.1392C115.582 95.1392 115.998 95.21 116.403 95.3517C116.808 95.4933 117.169 95.7235 117.486 96.0423C117.803 96.3574 118.044 96.7753 118.207 97.2959C118.371 97.8165 118.424 98.4574 118.368 99.2188L118.328 99.75H112.021L112.102 98.6664H117.13C117.165 98.206 117.103 97.7952 116.945 97.434C116.791 97.0728 116.553 96.7877 116.231 96.5788C115.913 96.3698 115.527 96.2654 115.072 96.2654C114.571 96.2654 114.129 96.3893 113.745 96.6372C113.364 96.8815 113.062 97.2003 112.837 97.5934C112.613 97.9864 112.484 98.4079 112.45 98.8576L112.396 99.58C112.35 100.196 112.418 100.719 112.599 101.147C112.784 101.572 113.06 101.896 113.427 102.119C113.794 102.339 114.232 102.449 114.739 102.449C115.07 102.449 115.371 102.402 115.645 102.31C115.922 102.215 116.165 102.073 116.374 101.885C116.584 101.694 116.752 101.457 116.88 101.174L118.069 101.514C117.911 101.924 117.669 102.286 117.344 102.597C117.019 102.905 116.628 103.146 116.171 103.32C115.715 103.49 115.209 103.575 114.655 103.575ZM124.187 103.405L124.795 95.2455H131.229L130.622 103.405H129.365L129.885 96.4141H125.965L125.444 103.405H124.187ZM136.229 103.575C135.49 103.575 134.855 103.399 134.324 103.049C133.796 102.698 133.399 102.208 133.133 101.577C132.871 100.947 132.772 100.21 132.835 99.3676C132.898 98.5176 133.108 97.7757 133.464 97.1418C133.824 96.5079 134.293 96.0157 134.874 95.6651C135.457 95.3145 136.118 95.1392 136.857 95.1392C137.596 95.1392 138.229 95.3145 138.757 95.6651C139.288 96.0157 139.685 96.5079 139.946 97.1418C140.212 97.7757 140.313 98.5176 140.249 99.3676C140.187 100.21 139.976 100.947 139.616 101.577C139.26 102.208 138.79 102.698 138.207 103.049C137.627 103.399 136.967 103.575 136.229 103.575ZM136.313 102.449C136.874 102.449 137.346 102.305 137.73 102.018C138.113 101.731 138.409 101.354 138.618 100.887C138.827 100.419 138.952 99.9129 138.992 99.3676C139.033 98.8222 138.984 98.314 138.845 97.843C138.706 97.372 138.466 96.9913 138.126 96.7009C137.785 96.4106 137.334 96.2654 136.773 96.2654C136.212 96.2654 135.74 96.4106 135.356 96.7009C134.972 96.9913 134.675 97.372 134.466 97.843C134.257 98.314 134.132 98.8222 134.092 99.3676C134.051 99.9129 134.1 100.419 134.24 100.887C134.379 101.354 134.619 101.731 134.96 102.018C135.3 102.305 135.751 102.449 136.313 102.449ZM140.82 105.742L141.081 102.236H141.763C141.943 102.063 142.101 101.875 142.236 101.673C142.372 101.471 142.495 101.232 142.604 100.956C142.717 100.676 142.821 100.336 142.914 99.9359C143.008 99.5322 143.101 99.0453 143.194 98.4751L143.711 95.2455H148.91L148.389 102.236H149.646L149.385 105.742H148.128L148.302 103.405H142.251L142.077 105.742H140.82ZM143.19 102.236H147.132L147.566 96.4141H144.796L144.429 98.4751C144.277 99.3286 144.111 100.074 143.933 100.711C143.754 101.349 143.506 101.857 143.19 102.236ZM151.228 103.405L151.836 95.2455H153.093L152.829 98.7939H153.66L156.864 95.2455H158.483L154.888 99.1763L157.918 103.405H156.299L153.871 99.9625H152.741L152.485 103.405H151.228ZM158.56 103.405L158.647 102.236H158.946C159.191 102.236 159.398 102.188 159.569 102.093C159.74 101.993 159.884 101.822 160.001 101.577C160.123 101.329 160.227 100.986 160.312 100.547C160.402 100.104 160.485 99.5411 160.561 98.8576L160.979 95.2455H166.434L165.826 103.405H164.569L165.089 96.4141H162.085L161.741 99.3251C161.662 99.9944 161.558 100.584 161.428 101.094C161.301 101.6 161.133 102.025 160.923 102.369C160.716 102.712 160.455 102.971 160.14 103.144C159.826 103.318 159.441 103.405 158.986 103.405H158.56ZM172.395 98.8151L172.308 99.9837H167.982L168.069 98.8151H172.395ZM169.401 95.2455L168.793 103.405H167.536L168.143 95.2455H169.401ZM174.554 103.575C173.816 103.575 173.181 103.399 172.649 103.049C172.121 102.698 171.725 102.208 171.459 101.577C171.197 100.947 171.097 100.21 171.16 99.3676C171.224 98.5176 171.433 97.7757 171.789 97.1418C172.149 96.5079 172.619 96.0157 173.199 95.6651C173.783 95.3145 174.444 95.1392 175.183 95.1392C175.921 95.1392 176.555 95.3145 177.082 95.6651C177.614 96.0157 178.01 96.5079 178.272 97.1418C178.537 97.7757 178.638 98.5176 178.575 99.3676C178.512 100.21 178.301 100.947 177.942 101.577C177.586 102.208 177.116 102.698 176.532 103.049C175.952 103.399 175.293 103.575 174.554 103.575ZM174.638 102.449C175.199 102.449 175.672 102.305 176.055 102.018C176.439 101.731 176.735 101.354 176.944 100.887C177.153 100.419 177.277 99.9129 177.318 99.3676C177.359 98.8222 177.309 98.314 177.171 97.843C177.032 97.372 176.792 96.9913 176.451 96.7009C176.111 96.4106 175.66 96.2654 175.099 96.2654C174.538 96.2654 174.065 96.4106 173.681 96.7009C173.298 96.9913 173.001 97.372 172.792 97.843C172.583 98.314 172.458 98.8222 172.417 99.3676C172.377 99.9129 172.426 100.419 172.565 100.887C172.704 101.354 172.944 101.731 173.285 102.018C173.626 102.305 174.077 102.449 174.638 102.449ZM187.234 95.2455L186.627 103.405H185.37L185.977 95.2455H187.234ZM186.455 99.1338L186.368 100.302C186.076 100.409 185.786 100.503 185.5 100.584C185.213 100.662 184.914 100.724 184.602 100.77C184.29 100.812 183.949 100.834 183.579 100.834C182.653 100.834 181.927 100.584 181.403 100.085C180.883 99.5853 180.66 98.8364 180.734 97.8377L180.929 95.2242H182.186L181.992 97.8377C181.96 98.2556 182.015 98.5991 182.155 98.8682C182.294 99.1374 182.496 99.3375 182.76 99.4685C183.023 99.5995 183.326 99.665 183.667 99.665C184.199 99.665 184.684 99.6172 185.121 99.5216C185.561 99.4224 186.006 99.2932 186.455 99.1338ZM192.351 103.575C191.562 103.575 190.895 103.401 190.349 103.054C189.807 102.703 189.405 102.215 189.143 101.588C188.885 100.958 188.786 100.225 188.849 99.3888C188.911 98.5531 189.119 97.8165 189.471 97.179C189.828 96.538 190.295 96.0387 190.872 95.681C191.453 95.3198 192.113 95.1392 192.851 95.1392C193.277 95.1392 193.693 95.21 194.098 95.3517C194.503 95.4933 194.864 95.7235 195.181 96.0423C195.498 96.3574 195.739 96.7753 195.903 97.2959C196.066 97.8165 196.12 98.4574 196.063 99.2188L196.023 99.75H189.717L189.797 98.6664H194.826C194.86 98.206 194.798 97.7952 194.641 97.434C194.486 97.0728 194.248 96.7877 193.927 96.5788C193.608 96.3698 193.222 96.2654 192.767 96.2654C192.267 96.2654 191.824 96.3893 191.44 96.6372C191.06 96.8815 190.757 97.2003 190.532 97.5934C190.308 97.9864 190.179 98.4079 190.145 98.8576L190.092 99.58C190.046 100.196 190.113 100.719 190.294 101.147C190.479 101.572 190.755 101.896 191.122 102.119C191.489 102.339 191.927 102.449 192.435 102.449C192.765 102.449 193.067 102.402 193.34 102.31C193.617 102.215 193.86 102.073 194.069 101.885C194.279 101.694 194.447 101.457 194.575 101.174L195.764 101.514C195.606 101.924 195.364 102.286 195.039 102.597C194.714 102.905 194.323 103.146 193.867 103.32C193.41 103.49 192.905 103.575 192.351 103.575ZM203.486 98.7514L203.399 99.92H198.882L198.969 98.7514H203.486ZM199.528 95.2455L198.921 103.405H197.664L198.271 95.2455H199.528ZM204.706 95.2455L204.098 103.405H202.841L203.449 95.2455H204.706ZM207.789 101.556L212.201 95.2455H213.65L213.042 103.405H211.785L212.255 97.094L207.864 103.405H206.394L207.002 95.2455H208.259L207.789 101.556ZM220.266 103.405L220.788 96.3928H218.615C218.125 96.3928 217.731 96.5062 217.434 96.7328C217.136 96.9595 216.973 97.2711 216.943 97.6677C216.914 98.0573 217.018 98.3636 217.253 98.5867C217.492 98.8098 217.834 98.9214 218.278 98.9214H220.92L220.833 100.09H218.191C217.637 100.09 217.166 99.9926 216.779 99.7978C216.393 99.6031 216.104 99.3251 215.915 98.9638C215.725 98.5991 215.649 98.167 215.686 97.6677C215.724 97.1649 215.87 96.7328 216.124 96.3716C216.378 96.0104 216.724 95.7324 217.161 95.5376C217.601 95.3428 218.115 95.2455 218.701 95.2455H222.067L221.459 103.405H220.266ZM214.812 103.405L217.436 99.3463H218.8L216.175 103.405H214.812Z" fill="white"/>
<rect width="15.3579" height="15.3579" rx="7.67896" transform="matrix(1 0 -0.0742825 0.997237 66.6133 121.353)" fill="#F6F9FF"/>
<circle cx="4.47653" cy="4.47653" r="4.47653" transform="matrix(1 0 -0.0742825 0.997237 69.5781 124.546)" fill="#5171D0"/>
<path d="M73.832 127.522L73.6103 130.499" stroke="white" stroke-width="0.462501" stroke-linecap="round"/>
<path d="M72.2305 129.01H75.2148" stroke="white" stroke-width="0.462501" stroke-linecap="round"/>
<path d="M89.8389 136.953L90.1222 133.15H90.8253C91.0832 132.931 91.3335 132.621 91.5764 132.22C91.8231 131.817 92.0461 131.279 92.2453 130.606C92.4484 129.929 92.6136 129.07 92.7409 128.029L93.3171 123.44H99.7944L99.0711 133.15H100.328L100.046 136.932H98.7894L98.984 134.319H91.2923L91.096 136.953H89.8389ZM92.402 133.15H97.814L98.4502 124.608H94.4232L93.998 128.029C93.8963 128.823 93.7681 129.541 93.6136 130.186C93.4593 130.827 93.2803 131.395 93.0764 131.891C92.8729 132.383 92.6481 132.803 92.402 133.15ZM105.378 134.489C104.639 134.489 104.004 134.313 103.473 133.963C102.945 133.612 102.548 133.122 102.283 132.491C102.021 131.861 101.921 131.124 101.984 130.282C102.047 129.432 102.257 128.69 102.613 128.056C102.973 127.422 103.443 126.93 104.023 126.579C104.607 126.229 105.268 126.053 106.006 126.053C106.745 126.053 107.378 126.229 107.906 126.579C108.438 126.93 108.834 127.422 109.096 128.056C109.361 128.69 109.462 129.432 109.399 130.282C109.336 131.124 109.125 131.861 108.765 132.491C108.41 133.122 107.94 133.612 107.356 133.963C106.776 134.313 106.117 134.489 105.378 134.489ZM105.462 133.363C106.023 133.363 106.495 133.219 106.879 132.932C107.263 132.645 107.559 132.268 107.768 131.801C107.976 131.333 108.101 130.827 108.142 130.282C108.182 129.736 108.133 129.228 107.994 128.757C107.855 128.286 107.616 127.905 107.275 127.615C106.934 127.325 106.484 127.179 105.923 127.179C105.361 127.179 104.889 127.325 104.505 127.615C104.121 127.905 103.825 128.286 103.616 128.757C103.407 129.228 103.282 129.736 103.241 130.282C103.201 130.827 103.25 131.333 103.389 131.801C103.528 132.268 103.768 132.645 104.109 132.932C104.45 133.219 104.901 133.363 105.462 133.363ZM118.613 134.467C117.988 134.467 117.434 134.344 116.952 134.096C116.469 133.848 116.093 133.508 115.824 133.076C115.554 132.644 115.426 132.151 115.438 131.599H116.717C116.73 132.091 116.923 132.498 117.297 132.821C117.674 133.139 118.142 133.299 118.7 133.299C119.147 133.299 119.553 133.194 119.916 132.985C120.283 132.776 120.58 132.49 120.806 132.125C121.036 131.757 121.168 131.34 121.202 130.877C121.238 130.402 121.165 129.979 120.983 129.607C120.805 129.232 120.543 128.936 120.197 128.72C119.85 128.504 119.445 128.394 118.98 128.391C118.646 128.387 118.3 128.438 117.94 128.545C117.581 128.647 117.282 128.78 117.042 128.943L115.818 128.794L116.877 123.44H122.545L122.458 124.608H117.898L117.276 127.817H117.339C117.576 127.64 117.868 127.493 118.214 127.376C118.56 127.259 118.916 127.201 119.282 127.201C119.949 127.201 120.532 127.36 121.03 127.679C121.533 127.994 121.912 128.426 122.17 128.975C122.431 129.524 122.535 130.151 122.482 130.855C122.431 131.549 122.228 132.169 121.875 132.715C121.526 133.256 121.068 133.685 120.501 134C119.934 134.312 119.305 134.467 118.613 134.467ZM127.888 134.467C127.085 134.467 126.418 134.25 125.886 133.814C125.354 133.375 124.969 132.739 124.733 131.907C124.497 131.071 124.423 130.062 124.511 128.879C124.599 127.704 124.823 126.7 125.183 125.867C125.547 125.032 126.028 124.394 126.625 123.955C127.226 123.512 127.925 123.291 128.72 123.291C129.516 123.291 130.179 123.512 130.711 123.955C131.246 124.394 131.632 125.032 131.868 125.867C132.108 126.7 132.184 127.704 132.097 128.879C132.008 130.062 131.784 131.071 131.424 131.907C131.063 132.739 130.584 133.375 129.987 133.814C129.39 134.25 128.69 134.467 127.888 134.467ZM127.975 133.299C128.77 133.299 129.417 132.916 129.914 132.151C130.411 131.387 130.713 130.296 130.818 128.879C130.888 127.937 130.847 127.135 130.694 126.473C130.544 125.811 130.294 125.306 129.944 124.959C129.597 124.612 129.16 124.438 128.635 124.438C127.846 124.438 127.201 124.826 126.7 125.602C126.198 126.374 125.895 127.466 125.79 128.879C125.72 129.821 125.759 130.622 125.909 131.28C126.059 131.939 126.307 132.44 126.655 132.784C127.006 133.127 127.446 133.299 127.975 133.299ZM137.956 134.319L138.563 126.16H144.998L144.39 134.319H143.133L143.654 127.328H139.733L139.213 134.319H137.956ZM149.997 134.489C149.259 134.489 148.624 134.313 148.092 133.963C147.564 133.612 147.168 133.122 146.902 132.491C146.64 131.861 146.54 131.124 146.603 130.282C146.667 129.432 146.876 128.69 147.232 128.056C147.592 127.422 148.062 126.93 148.642 126.579C149.226 126.229 149.887 126.053 150.626 126.053C151.364 126.053 151.997 126.229 152.525 126.579C153.057 126.93 153.453 127.422 153.715 128.056C153.98 128.69 154.081 129.432 154.018 130.282C153.955 131.124 153.744 131.861 153.385 132.491C153.029 133.122 152.559 133.612 151.975 133.963C151.395 134.313 150.736 134.489 149.997 134.489ZM150.081 133.363C150.642 133.363 151.114 133.219 151.498 132.932C151.882 132.645 152.178 132.268 152.387 131.801C152.596 131.333 152.72 130.827 152.761 130.282C152.801 129.736 152.752 129.228 152.613 128.757C152.474 128.286 152.235 127.905 151.894 127.615C151.554 127.325 151.103 127.179 150.542 127.179C149.981 127.179 149.508 127.325 149.124 127.615C148.74 127.905 148.444 128.286 148.235 128.757C148.026 129.228 147.901 129.736 147.86 130.282C147.82 130.827 147.869 131.333 148.008 131.801C148.147 132.268 148.387 132.645 148.728 132.932C149.069 133.219 149.52 133.363 150.081 133.363ZM154.912 134.319L154.999 133.15H155.297C155.542 133.15 155.75 133.102 155.92 133.007C156.091 132.908 156.235 132.736 156.353 132.491C156.474 132.244 156.578 131.9 156.664 131.461C156.754 131.018 156.837 130.455 156.912 129.772L157.331 126.16H162.785L162.177 134.319H160.92L161.441 127.328H158.437L158.092 130.239C158.014 130.908 157.91 131.498 157.779 132.008C157.653 132.514 157.484 132.939 157.274 133.283C157.067 133.626 156.807 133.885 156.492 134.058C156.177 134.232 155.792 134.319 155.338 134.319H154.912ZM165.958 129.113H168.302C169.261 129.113 169.976 129.356 170.448 129.841C170.919 130.326 171.128 130.94 171.072 131.684C171.036 132.173 170.889 132.617 170.632 133.017C170.375 133.414 170.018 133.731 169.56 133.968C169.102 134.202 168.553 134.319 167.914 134.319H164.484L165.092 126.16H166.349L165.828 133.15H168.001C168.498 133.15 168.917 133.019 169.256 132.757C169.595 132.495 169.78 132.159 169.81 131.748C169.842 131.316 169.709 130.963 169.41 130.691C169.11 130.418 168.712 130.282 168.215 130.282H165.871L165.958 129.113ZM172.433 132.236H173.776C173.777 132.605 173.923 132.884 174.214 133.076C174.508 133.267 174.903 133.363 175.396 133.363C175.901 133.363 176.34 133.26 176.714 133.054C177.088 132.846 177.292 132.509 177.327 132.045C177.347 131.773 177.297 131.535 177.177 131.333C177.058 131.128 176.88 130.969 176.643 130.855C176.406 130.742 176.121 130.685 175.787 130.685H174.381L174.465 129.559H175.871C176.372 129.559 176.75 129.446 177.005 129.219C177.263 128.993 177.405 128.709 177.43 128.369C177.457 128.005 177.349 127.712 177.107 127.493C176.864 127.27 176.505 127.158 176.029 127.158C175.549 127.158 175.142 127.266 174.806 127.482C174.471 127.695 174.282 127.969 174.239 128.306H172.918C172.965 127.866 173.129 127.479 173.409 127.142C173.69 126.802 174.058 126.537 174.513 126.345C174.968 126.151 175.479 126.053 176.047 126.053C176.623 126.053 177.114 126.154 177.521 126.356C177.933 126.554 178.241 126.825 178.446 127.169C178.655 127.509 178.744 127.895 178.712 128.327C178.677 128.787 178.52 129.159 178.24 129.442C177.959 129.726 177.619 129.927 177.22 130.048L177.214 130.133C177.521 130.154 177.782 130.253 177.996 130.43C178.214 130.604 178.376 130.832 178.483 131.116C178.59 131.395 178.63 131.705 178.605 132.045C178.568 132.541 178.403 132.973 178.109 133.341C177.816 133.706 177.429 133.989 176.949 134.191C176.469 134.39 175.93 134.489 175.334 134.489C174.755 134.489 174.243 134.395 173.799 134.207C173.355 134.016 173.011 133.752 172.766 133.416C172.525 133.076 172.414 132.683 172.433 132.236ZM183.513 134.489C182.774 134.489 182.139 134.313 181.608 133.963C181.08 133.612 180.683 133.122 180.418 132.491C180.156 131.861 180.056 131.124 180.119 130.282C180.182 129.432 180.392 128.69 180.748 128.056C181.108 127.422 181.578 126.93 182.158 126.579C182.741 126.229 183.403 126.053 184.141 126.053C184.88 126.053 185.513 126.229 186.041 126.579C186.572 126.93 186.969 127.422 187.231 128.056C187.496 128.69 187.597 129.432 187.534 130.282C187.471 131.124 187.26 131.861 186.9 132.491C186.544 133.122 186.075 133.612 185.491 133.963C184.911 134.313 184.251 134.489 183.513 134.489ZM183.597 133.363C184.158 133.363 184.63 133.219 185.014 132.932C185.397 132.645 185.693 132.268 185.902 131.801C186.111 131.333 186.236 130.827 186.276 130.282C186.317 129.736 186.268 129.228 186.129 128.757C185.99 128.286 185.75 127.905 185.41 127.615C185.069 127.325 184.618 127.179 184.057 127.179C183.496 127.179 183.024 127.325 182.64 127.615C182.256 127.905 181.96 128.286 181.75 128.757C181.541 129.228 181.417 129.736 181.376 130.282C181.335 130.827 181.385 131.333 181.524 131.801C181.663 132.268 181.903 132.645 182.244 132.932C182.585 133.219 183.036 133.363 183.597 133.363ZM189.152 134.319L189.76 126.16H193.105C193.985 126.16 194.67 126.358 195.159 126.754C195.648 127.151 195.868 127.675 195.82 128.327C195.783 128.823 195.607 129.207 195.292 129.48C194.977 129.749 194.585 129.931 194.116 130.027C194.415 130.069 194.7 130.175 194.972 130.345C195.247 130.515 195.467 130.749 195.633 131.047C195.799 131.34 195.867 131.702 195.835 132.13C195.804 132.548 195.669 132.922 195.432 133.251C195.194 133.58 194.869 133.841 194.457 134.032C194.045 134.223 193.562 134.319 193.008 134.319H189.152ZM190.43 133.171H193.094C193.527 133.171 193.874 133.069 194.134 132.863C194.394 132.658 194.538 132.378 194.564 132.024C194.596 131.603 194.498 131.271 194.271 131.031C194.044 130.786 193.714 130.664 193.281 130.664H190.617L190.43 133.171ZM190.698 129.58H192.85C193.187 129.58 193.48 129.534 193.728 129.442C193.977 129.347 194.172 129.212 194.313 129.039C194.457 128.862 194.538 128.653 194.556 128.412C194.582 128.068 194.458 127.799 194.185 127.604C193.912 127.406 193.524 127.307 193.019 127.307H190.867L190.698 129.58ZM199.968 134.51C199.45 134.51 198.986 134.413 198.578 134.218C198.17 134.019 197.856 133.734 197.635 133.363C197.415 132.987 197.324 132.534 197.364 132.003C197.398 131.535 197.519 131.156 197.725 130.866C197.932 130.572 198.196 130.342 198.517 130.175C198.839 130.009 199.189 129.885 199.568 129.804C199.95 129.719 200.334 129.651 200.717 129.602C201.219 129.538 201.626 129.49 201.937 129.458C202.252 129.423 202.484 129.364 202.632 129.283C202.784 129.202 202.867 129.06 202.882 128.858L202.885 128.816C202.924 128.291 202.811 127.884 202.545 127.594C202.282 127.303 201.862 127.158 201.283 127.158C200.683 127.158 200.202 127.289 199.842 127.551C199.481 127.813 199.221 128.093 199.06 128.391L197.899 127.966C198.149 127.47 198.462 127.084 198.837 126.808C199.217 126.528 199.622 126.333 200.053 126.223C200.487 126.11 200.911 126.053 201.322 126.053C201.585 126.053 201.885 126.085 202.221 126.149C202.561 126.209 202.884 126.335 203.189 126.526C203.498 126.717 203.744 127.006 203.929 127.392C204.113 127.778 204.181 128.295 204.133 128.943L203.732 134.319H202.475L202.558 133.214H202.494C202.395 133.391 202.239 133.58 202.025 133.782C201.811 133.984 201.534 134.156 201.193 134.297C200.852 134.439 200.444 134.51 199.968 134.51ZM200.244 133.384C200.741 133.384 201.167 133.286 201.523 133.092C201.882 132.897 202.16 132.645 202.356 132.337C202.557 132.029 202.67 131.705 202.695 131.365L202.781 130.218C202.723 130.282 202.601 130.34 202.416 130.393C202.235 130.443 202.026 130.487 201.788 130.526C201.555 130.561 201.327 130.593 201.105 130.622C200.886 130.646 200.709 130.668 200.573 130.685C200.243 130.728 199.932 130.797 199.641 130.892C199.354 130.985 199.116 131.124 198.928 131.312C198.744 131.496 198.64 131.748 198.616 132.066C198.584 132.502 198.721 132.831 199.027 133.054C199.338 133.274 199.743 133.384 200.244 133.384ZM205.434 127.328L205.521 126.16H212.169L212.082 127.328H209.397L208.877 134.319H207.62L208.14 127.328H205.434ZM216.388 134.489C215.6 134.489 214.932 134.315 214.387 133.968C213.844 133.618 213.442 133.129 213.18 132.502C212.922 131.872 212.824 131.139 212.886 130.303C212.948 129.467 213.156 128.731 213.508 128.093C213.865 127.452 214.332 126.953 214.909 126.595C215.49 126.234 216.15 126.053 216.888 126.053C217.315 126.053 217.73 126.124 218.135 126.266C218.54 126.407 218.901 126.638 219.218 126.956C219.536 127.271 219.776 127.689 219.94 128.21C220.103 128.731 220.157 129.371 220.1 130.133L220.061 130.664H213.754L213.834 129.58H218.863C218.897 129.12 218.835 128.709 218.678 128.348C218.524 127.987 218.286 127.702 217.964 127.493C217.645 127.284 217.259 127.179 216.805 127.179C216.304 127.179 215.861 127.303 215.477 127.551C215.097 127.796 214.794 128.114 214.57 128.507C214.345 128.901 214.216 129.322 214.182 129.772L214.129 130.494C214.083 131.11 214.15 131.633 214.332 132.061C214.516 132.486 214.792 132.81 215.159 133.033C215.526 133.253 215.964 133.363 216.472 133.363C216.802 133.363 217.104 133.317 217.377 133.224C217.654 133.129 217.897 132.987 218.106 132.8C218.316 132.608 218.485 132.371 218.612 132.088L219.801 132.428C219.643 132.838 219.401 133.2 219.076 133.511C218.751 133.819 218.361 134.06 217.904 134.234C217.447 134.404 216.942 134.489 216.388 134.489ZM220.976 134.319L221.063 133.15H221.362C221.607 133.15 221.814 133.102 221.985 133.007C222.156 132.908 222.3 132.736 222.417 132.491C222.539 132.244 222.643 131.9 222.729 131.461C222.818 131.018 222.901 130.455 222.977 129.772L223.395 126.16H228.85L228.242 134.319H226.985L227.505 127.328H224.501L224.157 130.239C224.078 130.908 223.974 131.498 223.844 132.008C223.717 132.514 223.549 132.939 223.339 133.283C223.132 133.626 222.871 133.885 222.556 134.058C222.242 134.232 221.857 134.319 221.402 134.319H220.976ZM233.966 134.489C233.178 134.489 232.511 134.315 231.965 133.968C231.423 133.618 231.02 133.129 230.758 132.502C230.5 131.872 230.402 131.139 230.464 130.303C230.526 129.467 230.734 128.731 231.087 128.093C231.443 127.452 231.91 126.953 232.487 126.595C233.068 126.234 233.728 126.053 234.467 126.053C234.893 126.053 235.308 126.124 235.713 126.266C236.118 126.407 236.479 126.638 236.796 126.956C237.114 127.271 237.354 127.689 237.518 128.21C237.682 128.731 237.735 129.371 237.678 130.133L237.639 130.664H231.332L231.413 129.58H236.441C236.475 129.12 236.414 128.709 236.256 128.348C236.102 127.987 235.864 127.702 235.542 127.493C235.224 127.284 234.837 127.179 234.383 127.179C233.882 127.179 233.439 127.303 233.055 127.551C232.675 127.796 232.372 128.114 232.148 128.507C231.923 128.901 231.794 129.322 231.761 129.772L231.707 130.494C231.661 131.11 231.729 131.633 231.91 132.061C232.095 132.486 232.371 132.81 232.737 133.033C233.105 133.253 233.542 133.363 234.05 133.363C234.38 133.363 234.682 133.317 234.955 133.224C235.232 133.129 235.475 132.987 235.685 132.8C235.894 132.608 236.063 132.371 236.19 132.088L237.38 132.428C237.221 132.838 236.979 133.2 236.654 133.511C236.329 133.819 235.939 134.06 235.482 134.234C235.025 134.404 234.52 134.489 233.966 134.489ZM240.674 132.47L245.085 126.16H246.534L245.927 134.319H244.669L245.139 128.008L240.749 134.319H239.279L239.887 126.16H241.144L240.674 132.47ZM244.457 123.44H245.629C245.586 124.013 245.352 124.483 244.927 124.847C244.503 125.212 243.949 125.395 243.267 125.395C242.596 125.395 242.075 125.212 241.705 124.847C241.338 124.483 241.176 124.013 241.218 123.44H242.39C242.37 123.716 242.428 123.959 242.565 124.168C242.706 124.376 242.963 124.481 243.335 124.481C243.708 124.481 243.982 124.376 244.158 124.168C244.337 123.959 244.436 123.716 244.457 123.44Z" fill="white"/>
<rect width="15.3579" height="15.3579" rx="7.67896" transform="matrix(1 0 -0.0742825 0.997237 64.3125 152.267)" fill="#F6F9FF"/>
<circle cx="4.47653" cy="4.47653" r="4.47653" transform="matrix(1 0 -0.0742825 0.997237 67.2773 155.46)" fill="#5171D0"/>
<path d="M71.5312 158.437L71.3096 161.413" stroke="white" stroke-width="0.462501" stroke-linecap="round"/>
<path d="M69.9297 159.924H72.914" stroke="white" stroke-width="0.462501" stroke-linecap="round"/>
<path d="M87.5342 167.868L87.8175 164.064H88.5207C88.7785 163.845 89.0288 163.535 89.2717 163.135C89.5184 162.731 89.7414 162.193 89.9407 161.52C90.1437 160.843 90.3089 159.985 90.4362 158.943L91.0124 154.354H97.4897L96.7664 164.064H98.0235L97.7418 167.846H96.4847L96.6793 165.233H88.9876L88.7913 167.868H87.5342ZM90.0974 164.064H95.5093L96.1455 155.522H92.1186L91.6933 158.943C91.5916 159.737 91.4635 160.456 91.3089 161.1C91.1546 161.741 90.9756 162.309 90.7717 162.805C90.5682 163.297 90.3434 163.717 90.0974 164.064ZM103.073 165.403C102.335 165.403 101.7 165.227 101.168 164.877C100.64 164.526 100.244 164.036 99.9782 163.405C99.7162 162.775 99.6166 162.039 99.6794 161.196C99.7427 160.346 99.9524 159.604 100.309 158.97C100.668 158.336 101.138 157.844 101.718 157.493C102.302 157.143 102.963 156.967 103.702 156.967C104.44 156.967 105.074 157.143 105.601 157.493C106.133 157.844 106.529 158.336 106.791 158.97C107.056 159.604 107.157 160.346 107.094 161.196C107.031 162.039 106.82 162.775 106.461 163.405C106.105 164.036 105.635 164.526 105.051 164.877C104.471 165.227 103.812 165.403 103.073 165.403ZM103.157 164.277C103.718 164.277 104.191 164.133 104.574 163.846C104.958 163.56 105.254 163.182 105.463 162.715C105.672 162.247 105.796 161.741 105.837 161.196C105.878 160.65 105.829 160.142 105.69 159.671C105.551 159.2 105.311 158.819 104.97 158.529C104.63 158.239 104.179 158.093 103.618 158.093C103.057 158.093 102.584 158.239 102.2 158.529C101.817 158.819 101.52 159.2 101.311 159.671C101.102 160.142 100.977 160.65 100.936 161.196C100.896 161.741 100.945 162.247 101.084 162.715C101.223 163.182 101.464 163.56 101.804 163.846C102.145 164.133 102.596 164.277 103.157 164.277ZM117.555 154.354L116.745 165.233H115.424L116.131 155.735H116.068L113.273 157.499L113.373 156.16L116.234 154.354H117.555ZM123.43 165.382C122.627 165.382 121.96 165.164 121.428 164.728C120.896 164.289 120.511 163.653 120.275 162.821C120.039 161.985 119.965 160.976 120.053 159.793C120.141 158.618 120.365 157.614 120.725 156.781C121.089 155.946 121.57 155.308 122.167 154.869C122.768 154.426 123.467 154.205 124.262 154.205C125.058 154.205 125.721 154.426 126.253 154.869C126.788 155.308 127.174 155.946 127.41 156.781C127.65 157.614 127.726 158.618 127.638 159.793C127.55 160.976 127.326 161.985 126.966 162.821C126.605 163.653 126.126 164.289 125.529 164.728C124.932 165.164 124.232 165.382 123.43 165.382ZM123.517 164.213C124.312 164.213 124.959 163.83 125.456 163.066C125.953 162.301 126.255 161.21 126.36 159.793C126.43 158.851 126.389 158.049 126.236 157.387C126.086 156.725 125.836 156.22 125.486 155.873C125.139 155.526 124.702 155.352 124.177 155.352C123.388 155.352 122.743 155.74 122.242 156.516C121.74 157.288 121.437 158.38 121.332 159.793C121.262 160.735 121.301 161.536 121.451 162.194C121.601 162.853 121.849 163.354 122.197 163.698C122.548 164.041 122.988 164.213 123.517 164.213ZM132.805 165.382C132.002 165.382 131.335 165.164 130.803 164.728C130.271 164.289 129.886 163.653 129.65 162.821C129.414 161.985 129.34 160.976 129.428 159.793C129.516 158.618 129.74 157.614 130.1 156.781C130.464 155.946 130.945 155.308 131.542 154.869C132.143 154.426 132.842 154.205 133.637 154.205C134.433 154.205 135.096 154.426 135.628 154.869C136.163 155.308 136.549 155.946 136.785 156.781C137.025 157.614 137.101 158.618 137.013 159.793C136.925 160.976 136.701 161.985 136.341 162.821C135.98 163.653 135.501 164.289 134.904 164.728C134.307 165.164 133.607 165.382 132.805 165.382ZM132.892 164.213C133.687 164.213 134.334 163.83 134.831 163.066C135.328 162.301 135.63 161.21 135.735 159.793C135.805 158.851 135.764 158.049 135.611 157.387C135.461 156.725 135.211 156.22 134.861 155.873C134.514 155.526 134.077 155.352 133.552 155.352C132.763 155.352 132.118 155.74 131.617 156.516C131.115 157.288 130.812 158.38 130.707 159.793C130.637 160.735 130.676 161.536 130.826 162.194C130.976 162.853 131.224 163.354 131.572 163.698C131.923 164.041 132.363 164.213 132.892 164.213ZM142.18 165.382C141.377 165.382 140.71 165.164 140.178 164.728C139.646 164.289 139.261 163.653 139.025 162.821C138.789 161.985 138.715 160.976 138.803 159.793C138.891 158.618 139.115 157.614 139.475 156.781C139.839 155.946 140.32 155.308 140.917 154.869C141.518 154.426 142.217 154.205 143.012 154.205C143.808 154.205 144.471 154.426 145.003 154.869C145.538 155.308 145.924 155.946 146.16 156.781C146.4 157.614 146.476 158.618 146.388 159.793C146.3 160.976 146.076 161.985 145.716 162.821C145.355 163.653 144.876 164.289 144.279 164.728C143.682 165.164 142.982 165.382 142.18 165.382ZM142.267 164.213C143.062 164.213 143.709 163.83 144.206 163.066C144.703 162.301 145.005 161.21 145.11 159.793C145.18 158.851 145.139 158.049 144.986 157.387C144.836 156.725 144.586 156.22 144.236 155.873C143.889 155.526 143.452 155.352 142.927 155.352C142.138 155.352 141.493 155.74 140.992 156.516C140.49 157.288 140.187 158.38 140.082 159.793C140.012 160.735 140.051 161.536 140.201 162.194C140.351 162.853 140.599 163.354 140.947 163.698C141.298 164.041 141.738 164.213 142.267 164.213ZM151.891 163.15H153.234C153.235 163.519 153.381 163.799 153.672 163.99C153.966 164.181 154.361 164.277 154.854 164.277C155.359 164.277 155.798 164.174 156.172 163.969C156.546 163.76 156.75 163.423 156.785 162.959C156.805 162.687 156.755 162.449 156.635 162.247C156.516 162.042 156.338 161.883 156.101 161.769C155.864 161.656 155.579 161.599 155.245 161.599H153.839L153.923 160.473H155.329C155.83 160.473 156.208 160.36 156.463 160.133C156.721 159.907 156.863 159.623 156.888 159.283C156.915 158.919 156.807 158.626 156.565 158.407C156.322 158.184 155.963 158.072 155.487 158.072C155.007 158.072 154.6 158.18 154.264 158.396C153.929 158.609 153.74 158.883 153.697 159.22H152.376C152.423 158.78 152.587 158.393 152.867 158.056C153.148 157.716 153.516 157.451 153.971 157.259C154.426 157.065 154.937 156.967 155.505 156.967C156.081 156.967 156.572 157.068 156.979 157.27C157.391 157.468 157.699 157.739 157.904 158.083C158.113 158.423 158.202 158.809 158.17 159.241C158.135 159.701 157.978 160.073 157.698 160.356C157.417 160.64 157.077 160.842 156.678 160.962L156.672 161.047C156.979 161.068 157.24 161.167 157.454 161.344C157.672 161.518 157.834 161.746 157.941 162.03C158.048 162.309 158.089 162.619 158.063 162.959C158.026 163.455 157.861 163.887 157.567 164.255C157.274 164.62 156.887 164.903 156.407 165.105C155.927 165.304 155.388 165.403 154.792 165.403C154.213 165.403 153.701 165.309 153.257 165.121C152.813 164.93 152.469 164.666 152.224 164.33C151.983 163.99 151.872 163.597 151.891 163.15ZM162.053 165.424C161.535 165.424 161.071 165.327 160.663 165.132C160.255 164.934 159.941 164.648 159.72 164.277C159.5 163.901 159.409 163.448 159.449 162.917C159.483 162.449 159.604 162.07 159.81 161.78C160.017 161.486 160.281 161.256 160.602 161.089C160.923 160.923 161.274 160.799 161.653 160.718C162.035 160.633 162.419 160.565 162.802 160.516C163.304 160.452 163.711 160.404 164.022 160.372C164.337 160.337 164.569 160.278 164.717 160.197C164.869 160.116 164.952 159.974 164.967 159.772L164.97 159.73C165.009 159.205 164.896 158.798 164.63 158.508C164.367 158.217 163.947 158.072 163.368 158.072C162.768 158.072 162.287 158.203 161.927 158.465C161.566 158.727 161.306 159.007 161.145 159.305L159.984 158.88C160.234 158.384 160.547 157.998 160.922 157.722C161.302 157.442 161.707 157.247 162.138 157.137C162.572 157.024 162.995 156.967 163.407 156.967C163.67 156.967 163.97 156.999 164.306 157.063C164.646 157.123 164.968 157.249 165.274 157.44C165.583 157.631 165.829 157.92 166.014 158.306C166.198 158.692 166.266 159.209 166.218 159.857L165.817 165.233H164.56L164.643 164.128H164.579C164.48 164.305 164.324 164.494 164.11 164.696C163.896 164.898 163.619 165.07 163.278 165.212C162.937 165.353 162.529 165.424 162.053 165.424ZM162.329 164.298C162.826 164.298 163.252 164.2 163.608 164.006C163.967 163.811 164.244 163.56 164.441 163.251C164.642 162.943 164.755 162.619 164.78 162.279L164.866 161.132C164.808 161.196 164.686 161.254 164.501 161.307C164.32 161.357 164.111 161.401 163.873 161.44C163.64 161.475 163.412 161.507 163.19 161.536C162.971 161.56 162.794 161.582 162.658 161.599C162.328 161.642 162.017 161.711 161.726 161.807C161.439 161.899 161.201 162.039 161.013 162.226C160.829 162.41 160.725 162.662 160.701 162.981C160.669 163.416 160.806 163.745 161.112 163.969C161.422 164.188 161.828 164.298 162.329 164.298ZM168.112 165.233L168.72 157.074H175.154L174.546 165.233H173.289L173.81 158.242H169.89L169.369 165.233H168.112ZM176.614 168.292L177.45 157.074H178.665L178.568 158.37H178.717C178.82 158.228 178.961 158.047 179.141 157.828C179.325 157.605 179.577 157.406 179.899 157.233C180.225 157.056 180.654 156.967 181.187 156.967C181.876 156.967 182.47 157.139 182.97 157.483C183.47 157.826 183.844 158.313 184.092 158.943C184.339 159.574 184.431 160.317 184.368 161.174C184.303 162.039 184.1 162.788 183.758 163.421C183.416 164.052 182.972 164.54 182.424 164.888C181.876 165.231 181.261 165.403 180.58 165.403C180.054 165.403 179.64 165.316 179.337 165.142C179.034 164.965 178.805 164.765 178.652 164.542C178.498 164.316 178.381 164.128 178.299 163.979H178.193L177.871 168.292H176.614ZM178.382 161.153C178.336 161.769 178.386 162.313 178.532 162.784C178.678 163.251 178.916 163.618 179.244 163.884C179.572 164.146 179.989 164.277 180.493 164.277C181.019 164.277 181.467 164.139 181.84 163.862C182.216 163.583 182.51 163.207 182.722 162.736C182.939 162.262 183.069 161.734 183.112 161.153C183.155 160.579 183.105 160.062 182.961 159.602C182.822 159.138 182.585 158.772 182.249 158.503C181.918 158.23 181.486 158.093 180.954 158.093C180.442 158.093 180.003 158.223 179.636 158.481C179.269 158.736 178.979 159.094 178.767 159.554C178.556 160.011 178.427 160.544 178.382 161.153ZM189.294 165.403C188.555 165.403 187.92 165.227 187.389 164.877C186.861 164.526 186.464 164.036 186.199 163.405C185.937 162.775 185.837 162.039 185.9 161.196C185.963 160.346 186.173 159.604 186.529 158.97C186.889 158.336 187.359 157.844 187.939 157.493C188.523 157.143 189.184 156.967 189.922 156.967C190.661 156.967 191.294 157.143 191.822 157.493C192.354 157.844 192.75 158.336 193.012 158.97C193.277 159.604 193.378 160.346 193.315 161.196C193.252 162.039 193.041 162.775 192.681 163.405C192.326 164.036 191.856 164.526 191.272 164.877C190.692 165.227 190.033 165.403 189.294 165.403ZM189.378 164.277C189.939 164.277 190.411 164.133 190.795 163.846C191.179 163.56 191.475 163.182 191.684 162.715C191.892 162.247 192.017 161.741 192.058 161.196C192.098 160.65 192.049 160.142 191.91 159.671C191.771 159.2 191.532 158.819 191.191 158.529C190.85 158.239 190.4 158.093 189.839 158.093C189.277 158.093 188.805 158.239 188.421 158.529C188.037 158.819 187.741 159.2 187.532 159.671C187.323 160.142 187.198 160.65 187.157 161.196C187.117 161.741 187.166 162.247 187.305 162.715C187.444 163.182 187.684 163.56 188.025 163.846C188.366 164.133 188.817 164.277 189.378 164.277ZM198.244 165.403C197.477 165.403 196.83 165.222 196.303 164.861C195.776 164.5 195.387 164.002 195.136 163.368C194.885 162.734 194.79 162.01 194.85 161.196C194.912 160.367 195.119 159.636 195.472 159.002C195.828 158.364 196.295 157.867 196.872 157.509C197.453 157.148 198.113 156.967 198.851 156.967C199.427 156.967 199.937 157.074 200.383 157.286C200.829 157.499 201.185 157.796 201.451 158.178C201.717 158.561 201.867 159.007 201.9 159.517H200.643C200.575 159.145 200.386 158.816 200.077 158.529C199.772 158.239 199.343 158.093 198.789 158.093C198.299 158.093 197.859 158.221 197.471 158.476C197.087 158.727 196.774 159.083 196.534 159.544C196.298 160 196.156 160.537 196.111 161.153C196.064 161.784 196.122 162.332 196.286 162.8C196.454 163.267 196.711 163.63 197.057 163.889C197.407 164.147 197.831 164.277 198.328 164.277C198.655 164.277 198.956 164.22 199.23 164.107C199.505 163.993 199.743 163.83 199.943 163.618C200.144 163.405 200.294 163.15 200.394 162.853H201.652C201.545 163.335 201.337 163.768 201.027 164.154C200.722 164.537 200.332 164.841 199.857 165.068C199.385 165.291 198.848 165.403 198.244 165.403ZM206.623 165.403C205.885 165.403 205.25 165.227 204.718 164.877C204.19 164.526 203.794 164.036 203.528 163.405C203.266 162.775 203.166 162.039 203.229 161.196C203.292 160.346 203.502 159.604 203.858 158.97C204.218 158.336 204.688 157.844 205.268 157.493C205.852 157.143 206.513 156.967 207.252 156.967C207.99 156.967 208.623 157.143 209.151 157.493C209.683 157.844 210.079 158.336 210.341 158.97C210.606 159.604 210.707 160.346 210.644 161.196C210.581 162.039 210.37 162.775 210.011 163.405C209.655 164.036 209.185 164.526 208.601 164.877C208.021 165.227 207.362 165.403 206.623 165.403ZM206.707 164.277C207.268 164.277 207.74 164.133 208.124 163.846C208.508 163.56 208.804 163.182 209.013 162.715C209.221 162.247 209.346 161.741 209.387 161.196C209.427 160.65 209.378 160.142 209.239 159.671C209.1 159.2 208.861 158.819 208.52 158.529C208.18 158.239 207.729 158.093 207.168 158.093C206.607 158.093 206.134 158.239 205.75 158.529C205.366 158.819 205.07 159.2 204.861 159.671C204.652 160.142 204.527 160.65 204.486 161.196C204.446 161.741 204.495 162.247 204.634 162.715C204.773 163.182 205.013 163.56 205.354 163.846C205.695 164.133 206.146 164.277 206.707 164.277ZM212.262 165.233L212.87 157.074H216.215C217.096 157.074 217.781 157.272 218.27 157.669C218.758 158.065 218.979 158.589 218.93 159.241C218.893 159.737 218.717 160.121 218.402 160.394C218.087 160.663 217.696 160.845 217.227 160.941C217.525 160.983 217.811 161.089 218.082 161.259C218.357 161.429 218.577 161.663 218.743 161.961C218.91 162.255 218.977 162.616 218.945 163.044C218.914 163.462 218.78 163.836 218.542 164.165C218.304 164.494 217.98 164.755 217.568 164.946C217.156 165.137 216.673 165.233 216.119 165.233H212.262ZM213.541 164.085H216.204C216.637 164.085 216.984 163.983 217.245 163.777C217.505 163.572 217.648 163.292 217.675 162.938C217.706 162.517 217.608 162.185 217.381 161.945C217.154 161.7 216.824 161.578 216.391 161.578H213.728L213.541 164.085ZM213.808 160.494H215.96C216.298 160.494 216.59 160.448 216.839 160.356C217.087 160.261 217.282 160.126 217.423 159.953C217.567 159.776 217.649 159.567 217.667 159.326C217.692 158.982 217.568 158.713 217.295 158.518C217.022 158.32 216.634 158.221 216.13 158.221H213.978L213.808 160.494ZM225.522 165.233H224.137L228.953 154.354H230.316L233.512 165.233H232.127L229.549 156.075H229.464L225.522 165.233ZM226.35 160.983H231.932L231.845 162.152H226.263L226.35 160.983ZM237.342 154.354L236.532 165.233H235.211L236.021 154.354H237.342Z" fill="white"/>
<rect width="15.3579" height="15.3579" rx="7.67896" transform="matrix(1 0 -0.0742825 0.997237 62.0078 183.181)" fill="#F6F9FF"/>
<circle cx="4.47653" cy="4.47653" r="4.47653" transform="matrix(1 0 -0.0742825 0.997237 64.9727 186.375)" fill="#5171D0"/>
<path d="M69.2266 189.351L69.0049 192.327" stroke="white" stroke-width="0.462501" stroke-linecap="round"/>
<path d="M67.625 190.838H70.6094" stroke="white" stroke-width="0.462501" stroke-linecap="round"/>
<path d="M85.2334 198.782L85.5167 194.978H86.2199C86.4777 194.759 86.7281 194.449 86.9709 194.049C87.2176 193.645 87.4406 193.107 87.6399 192.434C87.843 191.757 88.0081 190.899 88.1354 189.857L88.7116 185.268H95.1889L94.4656 194.978H95.7227L95.441 198.76H94.1839L94.3786 196.147H86.6868L86.4905 198.782H85.2334ZM87.7966 194.978H93.2085L93.8448 186.437H89.8178L89.3925 189.857C89.2908 190.651 89.1627 191.37 89.0081 192.014C88.8539 192.655 88.6748 193.223 88.471 193.719C88.2674 194.212 88.0426 194.631 87.7966 194.978ZM100.773 196.317C100.034 196.317 99.3989 196.142 98.8675 195.791C98.3397 195.44 97.943 194.95 97.6774 194.32C97.4154 193.689 97.3158 192.953 97.3786 192.11C97.4419 191.26 97.6516 190.518 98.0078 189.884C98.3675 189.25 98.8374 188.758 99.4175 188.407C100.001 188.057 100.662 187.881 101.401 187.881C102.14 187.881 102.773 188.057 103.301 188.407C103.832 188.758 104.229 189.25 104.49 189.884C104.756 190.518 104.857 191.26 104.793 192.11C104.731 192.953 104.519 193.689 104.16 194.32C103.804 194.95 103.334 195.44 102.751 195.791C102.171 196.142 101.511 196.317 100.773 196.317ZM100.856 195.191C101.418 195.191 101.89 195.047 102.273 194.76C102.657 194.474 102.953 194.096 103.162 193.629C103.371 193.162 103.496 192.655 103.536 192.11C103.577 191.564 103.528 191.056 103.389 190.585C103.25 190.114 103.01 189.734 102.67 189.443C102.329 189.153 101.878 189.008 101.317 189.008C100.756 189.008 100.284 189.153 99.8997 189.443C99.5158 189.734 99.2193 190.114 99.0103 190.585C98.8012 191.056 98.6763 191.564 98.6357 192.11C98.5951 192.655 98.6443 193.162 98.7835 193.629C98.9227 194.096 99.1627 194.474 99.5036 194.76C99.8444 195.047 100.295 195.191 100.856 195.191ZM106.412 196.147L107.019 187.988H113.454L112.846 196.147H111.589L112.11 189.156H108.189L107.669 196.147H106.412ZM118.453 196.317C117.715 196.317 117.08 196.142 116.548 195.791C116.02 195.44 115.624 194.95 115.358 194.32C115.096 193.689 114.996 192.953 115.059 192.11C115.123 191.26 115.332 190.518 115.688 189.884C116.048 189.25 116.518 188.758 117.098 188.407C117.682 188.057 118.343 187.881 119.082 187.881C119.82 187.881 120.453 188.057 120.981 188.407C121.513 188.758 121.909 189.25 122.171 189.884C122.436 190.518 122.537 191.26 122.474 192.11C122.411 192.953 122.2 193.689 121.841 194.32C121.485 194.95 121.015 195.44 120.431 195.791C119.851 196.142 119.192 196.317 118.453 196.317ZM118.537 195.191C119.098 195.191 119.571 195.047 119.954 194.76C120.338 194.474 120.634 194.096 120.843 193.629C121.052 193.162 121.176 192.655 121.217 192.11C121.258 191.564 121.208 191.056 121.069 190.585C120.931 190.114 120.691 189.734 120.35 189.443C120.01 189.153 119.559 189.008 118.998 189.008C118.437 189.008 117.964 189.153 117.58 189.443C117.196 189.734 116.9 190.114 116.691 190.585C116.482 191.056 116.357 191.564 116.316 192.11C116.276 192.655 116.325 193.162 116.464 193.629C116.603 194.096 116.843 194.474 117.184 194.76C117.525 195.047 117.976 195.191 118.537 195.191ZM123.368 196.147L123.455 194.978H123.753C123.998 194.978 124.206 194.93 124.376 194.835C124.547 194.736 124.691 194.564 124.809 194.32C124.93 194.072 125.034 193.728 125.12 193.289C125.21 192.846 125.293 192.283 125.368 191.6L125.787 187.988H131.241L130.633 196.147H129.376L129.897 189.156H126.893L126.548 192.067C126.47 192.737 126.366 193.326 126.235 193.836C126.109 194.343 125.94 194.768 125.73 195.111C125.523 195.455 125.263 195.713 124.948 195.887C124.633 196.06 124.248 196.147 123.794 196.147H123.368ZM138.762 191.494L138.675 192.662H134.158L134.245 191.494H138.762ZM134.805 187.988L134.197 196.147H132.94L133.548 187.988H134.805ZM139.982 187.988L139.375 196.147H138.117L138.725 187.988H139.982ZM143.065 194.298L147.477 187.988H148.926L148.318 196.147H147.061L147.531 189.836L143.141 196.147H141.67L142.278 187.988H143.535L143.065 194.298ZM150.028 189.156L150.115 187.988H156.763L156.676 189.156H153.991L153.47 196.147H152.213L152.734 189.156H150.028ZM160.982 196.317C160.193 196.317 159.526 196.143 158.98 195.796C158.438 195.446 158.036 194.957 157.774 194.33C157.515 193.7 157.417 192.967 157.48 192.131C157.542 191.295 157.749 190.559 158.102 189.921C158.459 189.28 158.926 188.781 159.503 188.423C160.084 188.062 160.744 187.881 161.482 187.881C161.908 187.881 162.324 187.952 162.729 188.094C163.134 188.236 163.495 188.466 163.812 188.784C164.129 189.1 164.37 189.517 164.534 190.038C164.697 190.559 164.751 191.2 164.694 191.961L164.654 192.492H158.348L158.428 191.409H163.457C163.491 190.948 163.429 190.537 163.271 190.176C163.117 189.815 162.879 189.53 162.557 189.321C162.239 189.112 161.853 189.008 161.398 189.008C160.898 189.008 160.455 189.131 160.071 189.379C159.69 189.624 159.388 189.942 159.163 190.336C158.939 190.729 158.81 191.15 158.776 191.6L158.722 192.322C158.677 192.938 158.744 193.461 158.925 193.889C159.11 194.314 159.386 194.638 159.753 194.861C160.12 195.081 160.558 195.191 161.066 195.191C161.396 195.191 161.698 195.145 161.971 195.053C162.248 194.957 162.491 194.815 162.7 194.628C162.91 194.436 163.078 194.199 163.206 193.916L164.395 194.256C164.237 194.667 163.995 195.028 163.67 195.339C163.345 195.648 162.954 195.888 162.497 196.062C162.041 196.232 161.536 196.317 160.982 196.317ZM165.57 196.147L165.657 194.978H165.955C166.2 194.978 166.408 194.93 166.579 194.835C166.749 194.736 166.893 194.564 167.011 194.32C167.133 194.072 167.236 193.728 167.322 193.289C167.412 192.846 167.495 192.283 167.571 191.6L167.989 187.988H173.443L172.836 196.147H171.578L172.099 189.156H169.095L168.75 192.067C168.672 192.737 168.568 193.326 168.437 193.836C168.311 194.343 168.143 194.768 167.932 195.111C167.726 195.455 167.465 195.713 167.15 195.887C166.835 196.06 166.451 196.147 165.996 196.147H165.57ZM176.616 190.941H178.96C179.919 190.941 180.634 191.184 181.106 191.669C181.578 192.154 181.786 192.768 181.73 193.512C181.694 194.001 181.547 194.445 181.29 194.845C181.033 195.242 180.676 195.559 180.218 195.796C179.76 196.03 179.212 196.147 178.572 196.147H175.142L175.75 187.988H177.007L176.486 194.978H178.66C179.157 194.978 179.575 194.847 179.914 194.585C180.253 194.323 180.438 193.987 180.469 193.576C180.501 193.144 180.367 192.791 180.068 192.519C179.769 192.246 179.37 192.11 178.873 192.11H176.529L176.616 190.941ZM189.27 191.494L189.183 192.662H184.666L184.753 191.494H189.27ZM185.313 187.988L184.705 196.147H183.448L184.055 187.988H185.313ZM190.49 187.988L189.882 196.147H188.625L189.233 187.988H190.49ZM193.653 190.941H195.996C196.955 190.941 197.67 191.184 198.142 191.669C198.614 192.154 198.822 192.768 198.766 193.512C198.73 194.001 198.583 194.445 198.326 194.845C198.069 195.242 197.712 195.559 197.254 195.796C196.796 196.03 196.248 196.147 195.609 196.147H192.178L192.786 187.988H194.043L193.522 194.978H195.696C196.193 194.978 196.611 194.847 196.95 194.585C197.289 194.323 197.474 193.987 197.505 193.576C197.537 193.144 197.403 192.791 197.104 192.519C196.805 192.246 196.406 192.11 195.909 192.11H193.566L193.653 190.941ZM199.87 196.147L200.478 187.988H201.735L201.127 196.147H199.87ZM206.846 196.317C206.058 196.317 205.39 196.143 204.845 195.796C204.303 195.446 203.9 194.957 203.638 194.33C203.38 193.7 203.282 192.967 203.344 192.131C203.406 191.295 203.614 190.559 203.966 189.921C204.323 189.28 204.79 188.781 205.367 188.423C205.948 188.062 206.608 187.881 207.346 187.881C207.773 187.881 208.188 187.952 208.593 188.094C208.998 188.236 209.359 188.466 209.676 188.784C209.994 189.1 210.234 189.517 210.398 190.038C210.561 190.559 210.615 191.2 210.558 191.961L210.519 192.492H204.212L204.292 191.409H209.321C209.355 190.948 209.293 190.537 209.136 190.176C208.982 189.815 208.744 189.53 208.422 189.321C208.103 189.112 207.717 189.008 207.263 189.008C206.762 189.008 206.319 189.131 205.935 189.379C205.555 189.624 205.252 189.942 205.028 190.336C204.803 190.729 204.674 191.15 204.64 191.6L204.587 192.322C204.541 192.938 204.608 193.461 204.79 193.889C204.974 194.314 205.25 194.638 205.617 194.861C205.985 195.081 206.422 195.191 206.93 195.191C207.26 195.191 207.562 195.145 207.835 195.053C208.112 194.957 208.355 194.815 208.564 194.628C208.774 194.436 208.943 194.199 209.07 193.916L210.259 194.256C210.101 194.667 209.859 195.028 209.534 195.339C209.209 195.648 208.819 195.888 208.362 196.062C207.905 196.232 207.4 196.317 206.846 196.317ZM215.33 198.484L215.591 194.978H216.273C216.453 194.805 216.61 194.617 216.746 194.415C216.882 194.213 217.004 193.974 217.114 193.698C217.227 193.418 217.33 193.078 217.424 192.678C217.518 192.274 217.611 191.787 217.703 191.217L218.221 187.988H223.42L222.899 194.978H224.156L223.895 198.484H222.638L222.812 196.147H216.761L216.587 198.484H215.33ZM217.7 194.978H221.642L222.076 189.156H219.306L218.939 191.217C218.787 192.071 218.621 192.816 218.442 193.454C218.263 194.091 218.016 194.599 217.7 194.978ZM229.049 196.317C228.31 196.317 227.675 196.142 227.144 195.791C226.616 195.44 226.219 194.95 225.954 194.32C225.692 193.689 225.592 192.953 225.655 192.11C225.718 191.26 225.928 190.518 226.284 189.884C226.644 189.25 227.114 188.758 227.694 188.407C228.278 188.057 228.939 187.881 229.677 187.881C230.416 187.881 231.049 188.057 231.577 188.407C232.108 188.758 232.505 189.25 232.767 189.884C233.032 190.518 233.133 191.26 233.07 192.11C233.007 192.953 232.796 193.689 232.436 194.32C232.08 194.95 231.611 195.44 231.027 195.791C230.447 196.142 229.788 196.317 229.049 196.317ZM229.133 195.191C229.694 195.191 230.166 195.047 230.55 194.76C230.933 194.474 231.23 194.096 231.438 193.629C231.647 193.162 231.772 192.655 231.813 192.11C231.853 191.564 231.804 191.056 231.665 190.585C231.526 190.114 231.286 189.734 230.946 189.443C230.605 189.153 230.154 189.008 229.593 189.008C229.032 189.008 228.56 189.153 228.176 189.443C227.792 189.734 227.496 190.114 227.287 190.585C227.078 191.056 226.953 191.564 226.912 192.11C226.871 192.655 226.921 193.162 227.06 193.629C227.199 194.096 227.439 194.474 227.78 194.76C228.121 195.047 228.572 195.191 229.133 195.191ZM234.46 199.207L235.296 187.988H236.51L236.414 189.284H236.563C236.666 189.142 236.807 188.962 236.987 188.742C237.17 188.519 237.423 188.321 237.745 188.147C238.07 187.97 238.5 187.881 239.032 187.881C239.721 187.881 240.316 188.053 240.816 188.397C241.316 188.74 241.69 189.227 241.937 189.857C242.185 190.488 242.277 191.231 242.213 192.088C242.149 192.953 241.946 193.702 241.604 194.335C241.262 194.966 240.817 195.455 240.269 195.802C239.722 196.145 239.107 196.317 238.425 196.317C237.9 196.317 237.485 196.23 237.182 196.057C236.879 195.879 236.651 195.679 236.497 195.456C236.344 195.23 236.226 195.042 236.145 194.893H236.038L235.717 199.207H234.46ZM236.228 192.067C236.182 192.683 236.232 193.227 236.378 193.698C236.524 194.165 236.761 194.532 237.09 194.798C237.418 195.06 237.834 195.191 238.339 195.191C238.864 195.191 239.313 195.053 239.685 194.776C240.061 194.497 240.356 194.121 240.568 193.65C240.785 193.176 240.914 192.648 240.958 192.067C241 191.494 240.95 190.977 240.807 190.516C240.667 190.052 240.43 189.686 240.095 189.417C239.764 189.144 239.332 189.008 238.799 189.008C238.288 189.008 237.849 189.137 237.481 189.395C237.114 189.65 236.825 190.008 236.613 190.468C236.401 190.925 236.273 191.458 236.228 192.067ZM246.222 196.338C245.704 196.338 245.24 196.241 244.832 196.046C244.424 195.848 244.11 195.563 243.889 195.191C243.669 194.815 243.578 194.362 243.618 193.831C243.652 193.363 243.773 192.984 243.979 192.694C244.186 192.4 244.45 192.17 244.771 192.004C245.092 191.837 245.443 191.713 245.822 191.632C246.204 191.547 246.587 191.479 246.971 191.43C247.473 191.366 247.88 191.318 248.191 191.286C248.506 191.251 248.738 191.193 248.886 191.111C249.038 191.03 249.121 190.888 249.136 190.686L249.139 190.644C249.178 190.12 249.065 189.712 248.799 189.422C248.536 189.131 248.116 188.986 247.537 188.986C246.937 188.986 246.456 189.117 246.096 189.379C245.735 189.641 245.475 189.921 245.314 190.219L244.153 189.794C244.403 189.298 244.716 188.912 245.091 188.636C245.471 188.356 245.876 188.161 246.307 188.051C246.741 187.938 247.164 187.881 247.576 187.881C247.839 187.881 248.139 187.913 248.475 187.977C248.815 188.037 249.137 188.163 249.443 188.354C249.752 188.545 249.998 188.834 250.183 189.22C250.367 189.606 250.435 190.123 250.387 190.771L249.986 196.147H248.729L248.811 195.042H248.748C248.649 195.219 248.493 195.408 248.279 195.61C248.065 195.812 247.788 195.984 247.447 196.126C247.106 196.267 246.698 196.338 246.222 196.338ZM246.498 195.212C246.995 195.212 247.421 195.115 247.777 194.92C248.135 194.725 248.413 194.474 248.61 194.165C248.811 193.857 248.924 193.533 248.949 193.193L249.035 192.046C248.977 192.11 248.855 192.168 248.67 192.221C248.489 192.271 248.279 192.315 248.042 192.354C247.809 192.39 247.581 192.421 247.359 192.45C247.14 192.475 246.963 192.496 246.826 192.513C246.497 192.556 246.186 192.625 245.895 192.721C245.607 192.813 245.37 192.953 245.182 193.14C244.998 193.324 244.894 193.576 244.87 193.895C244.837 194.33 244.975 194.659 245.281 194.883C245.591 195.102 245.997 195.212 246.498 195.212ZM259.189 184.928L259.771 185.693C259.505 185.934 259.204 186.102 258.871 186.198C258.537 186.293 258.163 186.352 257.75 186.373C257.336 186.394 256.876 186.415 256.371 186.437C255.801 186.458 255.32 186.596 254.928 186.851C254.536 187.106 254.221 187.474 253.983 187.956C253.745 188.437 253.571 189.029 253.462 189.73H253.568C253.883 189.22 254.295 188.845 254.803 188.604C255.311 188.363 255.845 188.243 256.406 188.243C257.046 188.243 257.61 188.391 258.099 188.689C258.588 188.986 258.96 189.427 259.215 190.012C259.47 190.596 259.565 191.316 259.501 192.173C259.438 193.027 259.23 193.764 258.879 194.383C258.531 195.003 258.071 195.481 257.499 195.818C256.931 196.15 256.281 196.317 255.549 196.317C254.818 196.317 254.19 196.145 253.665 195.802C253.14 195.455 252.751 194.941 252.496 194.261C252.241 193.578 252.151 192.733 252.226 191.727L252.291 190.856C252.427 189.039 252.838 187.662 253.526 186.723C254.217 185.785 255.187 185.3 256.436 185.268C256.878 185.254 257.27 185.25 257.614 185.257C257.958 185.264 258.259 185.248 258.518 185.209C258.777 185.171 259 185.077 259.189 184.928ZM255.633 195.191C256.127 195.191 256.56 195.067 256.934 194.819C257.311 194.571 257.612 194.222 257.838 193.772C258.063 193.319 258.199 192.786 258.244 192.173C258.289 191.579 258.229 191.072 258.065 190.654C257.904 190.236 257.652 189.918 257.31 189.698C256.968 189.479 256.546 189.369 256.046 189.369C255.68 189.369 255.347 189.431 255.046 189.555C254.746 189.679 254.484 189.861 254.26 190.102C254.036 190.343 253.854 190.637 253.715 190.984C253.579 191.331 253.491 191.727 253.45 192.173C253.382 193.087 253.543 193.818 253.931 194.367C254.32 194.916 254.887 195.191 255.633 195.191ZM264.44 196.317C263.701 196.317 263.066 196.142 262.535 195.791C262.007 195.44 261.61 194.95 261.344 194.32C261.082 193.689 260.983 192.953 261.046 192.11C261.109 191.26 261.319 190.518 261.675 189.884C262.035 189.25 262.504 188.758 263.085 188.407C263.668 188.057 264.329 187.881 265.068 187.881C265.807 187.881 266.44 188.057 266.968 188.407C267.499 188.758 267.896 189.25 268.157 189.884C268.423 190.518 268.524 191.26 268.46 192.11C268.398 192.953 268.186 193.689 267.827 194.32C267.471 194.95 267.001 195.44 266.418 195.791C265.838 196.142 265.178 196.317 264.44 196.317ZM264.523 195.191C265.085 195.191 265.557 195.047 265.94 194.76C266.324 194.474 266.62 194.096 266.829 193.629C267.038 193.162 267.163 192.655 267.203 192.11C267.244 191.564 267.195 191.056 267.056 190.585C266.917 190.114 266.677 189.734 266.337 189.443C265.996 189.153 265.545 189.008 264.984 189.008C264.423 189.008 263.95 189.153 263.567 189.443C263.183 189.734 262.886 190.114 262.677 190.585C262.468 191.056 262.343 191.564 262.303 192.11C262.262 192.655 262.311 193.162 262.451 193.629C262.59 194.096 262.83 194.474 263.171 194.76C263.511 195.047 263.962 195.191 264.523 195.191ZM269.53 189.156L269.617 187.988H276.265L276.178 189.156H273.493L272.972 196.147H271.715L272.236 189.156H269.53ZM277.491 196.147L278.098 187.988H279.356L279.091 191.536H279.922L283.127 187.988H284.746L281.151 191.919L284.181 196.147H282.562L280.133 192.705H279.004L278.748 196.147H277.491ZM286.942 194.298L291.354 187.988H292.803L292.195 196.147H290.938L291.408 189.836L287.017 196.147H285.547L286.155 187.988H287.412L286.942 194.298ZM84.7854 215.094L85.3931 206.935H91.8278L91.22 215.094H89.9629L90.4836 208.104H86.5632L86.0425 215.094H84.7854ZM96.827 215.264C96.0884 215.264 95.4534 215.089 94.922 214.738C94.3941 214.388 93.9974 213.897 93.7319 213.267C93.4699 212.637 93.3703 211.9 93.433 211.057C93.4963 210.207 93.7061 209.465 94.0623 208.832C94.422 208.198 94.8919 207.705 95.472 207.355C96.0556 207.004 96.7167 206.829 97.4554 206.829C98.194 206.829 98.8273 207.004 99.3551 207.355C99.8865 207.705 100.283 208.198 100.545 208.832C100.81 209.465 100.911 210.207 100.848 211.057C100.785 211.9 100.574 212.637 100.214 213.267C99.8586 213.897 99.3888 214.388 98.8051 214.738C98.225 215.089 97.5657 215.264 96.827 215.264ZM96.9109 214.138C97.472 214.138 97.9443 213.995 98.3279 213.708C98.7115 213.421 99.0077 213.044 99.2165 212.576C99.4254 212.109 99.5501 211.603 99.5907 211.057C99.6313 210.512 99.5822 210.004 99.4433 209.533C99.3043 209.062 99.0646 208.681 98.724 208.391C98.3834 208.1 97.9326 207.955 97.3715 207.955C96.8104 207.955 96.338 208.1 95.9541 208.391C95.5703 208.681 95.2738 209.062 95.0647 209.533C94.8556 210.004 94.7308 210.512 94.6901 211.057C94.6495 211.603 94.6988 212.109 94.838 212.576C94.9772 213.044 95.2172 213.421 95.558 213.708C95.8989 213.995 96.3498 214.138 96.9109 214.138ZM109.996 215.264C109.229 215.264 108.582 215.084 108.055 214.723C107.528 214.361 107.139 213.864 106.888 213.23C106.637 212.596 106.541 211.872 106.602 211.057C106.664 210.229 106.871 209.497 107.223 208.863C107.58 208.226 108.047 207.728 108.624 207.371C109.205 207.01 109.864 206.829 110.603 206.829C111.178 206.829 111.689 206.935 112.135 207.148C112.581 207.36 112.937 207.658 113.203 208.04C113.469 208.423 113.619 208.869 113.652 209.379H112.395C112.326 209.007 112.138 208.677 111.829 208.391C111.524 208.1 111.094 207.955 110.54 207.955C110.05 207.955 109.611 208.083 109.223 208.338C108.838 208.589 108.526 208.945 108.286 209.405C108.049 209.862 107.908 210.399 107.862 211.015C107.815 211.645 107.874 212.194 108.038 212.661C108.205 213.129 108.463 213.492 108.809 213.75C109.159 214.009 109.583 214.138 110.08 214.138C110.407 214.138 110.707 214.082 110.982 213.968C111.257 213.855 111.495 213.692 111.695 213.48C111.895 213.267 112.046 213.012 112.146 212.715H113.403C113.296 213.196 113.088 213.63 112.779 214.016C112.473 214.398 112.083 214.703 111.608 214.93C111.137 215.153 110.6 215.264 109.996 215.264ZM118.375 215.264C117.636 215.264 117.001 215.089 116.47 214.738C115.942 214.388 115.545 213.897 115.28 213.267C115.018 212.637 114.918 211.9 114.981 211.057C115.044 210.207 115.254 209.465 115.61 208.832C115.97 208.198 116.44 207.705 117.02 207.355C117.603 207.004 118.265 206.829 119.003 206.829C119.742 206.829 120.375 207.004 120.903 207.355C121.434 207.705 121.831 208.198 122.093 208.832C122.358 209.465 122.459 210.207 122.396 211.057C122.333 211.9 122.122 212.637 121.762 213.267C121.406 213.897 120.937 214.388 120.353 214.738C119.773 215.089 119.114 215.264 118.375 215.264ZM118.459 214.138C119.02 214.138 119.492 213.995 119.876 213.708C120.259 213.421 120.556 213.044 120.764 212.576C120.973 212.109 121.098 211.603 121.139 211.057C121.179 210.512 121.13 210.004 120.991 209.533C120.852 209.062 120.612 208.681 120.272 208.391C119.931 208.1 119.48 207.955 118.919 207.955C118.358 207.955 117.886 208.1 117.502 208.391C117.118 208.681 116.822 209.062 116.613 209.533C116.403 210.004 116.279 210.512 116.238 211.057C116.197 211.603 116.247 212.109 116.386 212.576C116.525 213.044 116.765 213.421 117.106 213.708C117.447 213.995 117.898 214.138 118.459 214.138ZM129.671 206.935L129.584 208.104H125.792L125.271 215.094H124.014L124.622 206.935H129.671ZM129.486 215.094L129.573 213.926H129.871C130.116 213.926 130.324 213.878 130.494 213.782C130.665 213.683 130.809 213.511 130.927 213.267C131.048 213.019 131.152 212.676 131.238 212.237C131.328 211.794 131.411 211.231 131.486 210.547L131.905 206.935H137.359L136.751 215.094H135.494L136.015 208.104H133.011L132.666 211.015C132.588 211.684 132.483 212.274 132.353 212.784C132.227 213.29 132.058 213.715 131.848 214.059C131.641 214.402 131.381 214.661 131.066 214.834C130.751 215.008 130.366 215.094 129.912 215.094H129.486ZM141.451 215.286C140.933 215.286 140.47 215.188 140.061 214.993C139.654 214.795 139.339 214.51 139.118 214.138C138.898 213.763 138.807 213.31 138.847 212.778C138.882 212.311 139.002 211.932 139.208 211.642C139.415 211.348 139.679 211.117 140 210.951C140.322 210.785 140.672 210.661 141.051 210.579C141.434 210.494 141.817 210.427 142.2 210.377C142.702 210.314 143.109 210.266 143.42 210.234C143.735 210.198 143.967 210.14 144.115 210.059C144.267 209.977 144.35 209.835 144.365 209.634L144.368 209.591C144.407 209.067 144.294 208.66 144.028 208.369C143.765 208.079 143.345 207.934 142.766 207.934C142.166 207.934 141.686 208.065 141.325 208.327C140.965 208.589 140.704 208.869 140.543 209.166L139.382 208.741C139.632 208.245 139.945 207.859 140.32 207.583C140.7 207.303 141.105 207.109 141.536 206.999C141.97 206.886 142.394 206.829 142.806 206.829C143.068 206.829 143.368 206.861 143.704 206.925C144.044 206.985 144.367 207.11 144.672 207.302C144.981 207.493 145.228 207.782 145.412 208.168C145.596 208.554 145.664 209.071 145.616 209.719L145.216 215.094H143.958L144.041 213.989H143.977C143.878 214.167 143.722 214.356 143.508 214.558C143.294 214.76 143.017 214.931 142.676 215.073C142.335 215.215 141.927 215.286 141.451 215.286ZM141.727 214.159C142.224 214.159 142.65 214.062 143.006 213.867C143.365 213.673 143.643 213.421 143.84 213.113C144.04 212.805 144.153 212.481 144.178 212.141L144.264 210.994C144.206 211.057 144.084 211.116 143.899 211.169C143.718 211.218 143.509 211.263 143.271 211.302C143.038 211.337 142.81 211.369 142.588 211.397C142.369 211.422 142.192 211.443 142.056 211.461C141.726 211.503 141.415 211.573 141.124 211.668C140.837 211.76 140.599 211.9 140.411 212.088C140.227 212.272 140.123 212.523 140.099 212.842C140.067 213.278 140.204 213.607 140.51 213.83C140.821 214.05 141.226 214.159 141.727 214.159ZM150.821 215.264C150.054 215.264 149.407 215.084 148.88 214.723C148.353 214.361 147.964 213.864 147.713 213.23C147.462 212.596 147.367 211.872 147.427 211.057C147.489 210.229 147.696 209.497 148.049 208.863C148.405 208.226 148.872 207.728 149.449 207.371C150.03 207.01 150.69 206.829 151.428 206.829C152.004 206.829 152.514 206.935 152.96 207.148C153.406 207.36 153.762 207.658 154.028 208.04C154.294 208.423 154.444 208.869 154.477 209.379H153.22C153.152 209.007 152.963 208.677 152.654 208.391C152.349 208.1 151.92 207.955 151.366 207.955C150.876 207.955 150.436 208.083 150.048 208.338C149.664 208.589 149.351 208.945 149.111 209.405C148.875 209.862 148.733 210.399 148.687 211.015C148.64 211.645 148.699 212.194 148.863 212.661C149.031 213.129 149.288 213.492 149.634 213.75C149.984 214.009 150.408 214.138 150.905 214.138C151.232 214.138 151.533 214.082 151.807 213.968C152.082 213.855 152.32 213.692 152.52 213.48C152.721 213.267 152.871 213.012 152.971 212.715H154.228C154.122 213.196 153.913 213.63 153.604 214.016C153.299 214.398 152.908 214.703 152.433 214.93C151.962 215.153 151.425 215.264 150.821 215.264ZM159.2 215.264C158.461 215.264 157.826 215.089 157.295 214.738C156.767 214.388 156.37 213.897 156.105 213.267C155.843 212.637 155.743 211.9 155.806 211.057C155.869 210.207 156.079 209.465 156.435 208.832C156.795 208.198 157.265 207.705 157.845 207.355C158.429 207.004 159.09 206.829 159.828 206.829C160.567 206.829 161.2 207.004 161.728 207.355C162.26 207.705 162.656 208.198 162.918 208.832C163.183 209.465 163.284 210.207 163.221 211.057C163.158 211.9 162.947 212.637 162.588 213.267C162.232 213.897 161.762 214.388 161.178 214.738C160.598 215.089 159.939 215.264 159.2 215.264ZM159.284 214.138C159.845 214.138 160.317 213.995 160.701 213.708C161.085 213.421 161.381 213.044 161.59 212.576C161.798 212.109 161.923 211.603 161.964 211.057C162.004 210.512 161.955 210.004 161.816 209.533C161.677 209.062 161.438 208.681 161.097 208.391C160.756 208.1 160.306 207.955 159.745 207.955C159.183 207.955 158.711 208.1 158.327 208.391C157.943 208.681 157.647 209.062 157.438 209.533C157.229 210.004 157.104 210.512 157.063 211.057C157.023 211.603 157.072 212.109 157.211 212.576C157.35 213.044 157.59 213.421 157.931 213.708C158.272 213.995 158.723 214.138 159.284 214.138ZM164.839 215.094L165.447 206.935H168.792C169.673 206.935 170.358 207.133 170.846 207.53C171.335 207.927 171.556 208.451 171.507 209.102C171.47 209.598 171.294 209.982 170.979 210.255C170.664 210.524 170.272 210.707 169.804 210.802C170.102 210.845 170.387 210.951 170.659 211.121C170.934 211.291 171.154 211.525 171.32 211.822C171.487 212.116 171.554 212.477 171.522 212.906C171.491 213.324 171.357 213.697 171.119 214.027C170.881 214.356 170.557 214.616 170.145 214.808C169.733 214.999 169.25 215.094 168.696 215.094H164.839ZM166.118 213.947H168.781C169.214 213.947 169.561 213.844 169.821 213.639C170.082 213.433 170.225 213.154 170.251 212.8C170.283 212.378 170.185 212.047 169.958 211.806C169.731 211.562 169.401 211.44 168.968 211.44H166.304L166.118 213.947ZM166.385 210.356H168.537C168.875 210.356 169.167 210.31 169.416 210.218C169.664 210.122 169.859 209.988 170 209.814C170.144 209.637 170.226 209.428 170.244 209.187C170.269 208.844 170.145 208.575 169.872 208.38C169.599 208.182 169.211 208.083 168.707 208.083H166.555L166.385 210.356ZM175.655 215.286C175.137 215.286 174.674 215.188 174.266 214.993C173.858 214.795 173.543 214.51 173.323 214.138C173.102 213.763 173.011 213.31 173.051 212.778C173.086 212.311 173.206 211.932 173.413 211.642C173.619 211.348 173.883 211.117 174.204 210.951C174.526 210.785 174.876 210.661 175.255 210.579C175.638 210.494 176.021 210.427 176.404 210.377C176.906 210.314 177.313 210.266 177.624 210.234C177.939 210.198 178.171 210.14 178.319 210.059C178.471 209.977 178.554 209.835 178.569 209.634L178.572 209.591C178.611 209.067 178.498 208.66 178.232 208.369C177.97 208.079 177.549 207.934 176.97 207.934C176.37 207.934 175.89 208.065 175.529 208.327C175.169 208.589 174.908 208.869 174.748 209.166L173.586 208.741C173.836 208.245 174.149 207.859 174.525 207.583C174.904 207.303 175.309 207.109 175.74 206.999C176.175 206.886 176.598 206.829 177.01 206.829C177.273 206.829 177.572 206.861 177.908 206.925C178.248 206.985 178.571 207.11 178.876 207.302C179.185 207.493 179.432 207.782 179.616 208.168C179.8 208.554 179.868 209.071 179.82 209.719L179.42 215.094H178.163L178.245 213.989H178.181C178.082 214.167 177.926 214.356 177.712 214.558C177.499 214.76 177.221 214.931 176.88 215.073C176.54 215.215 176.131 215.286 175.655 215.286ZM175.931 214.159C176.428 214.159 176.854 214.062 177.21 213.867C177.569 213.673 177.847 213.421 178.044 213.113C178.244 212.805 178.357 212.481 178.383 212.141L178.468 210.994C178.41 211.057 178.288 211.116 178.103 211.169C177.922 211.218 177.713 211.263 177.476 211.302C177.242 211.337 177.014 211.369 176.792 211.397C176.573 211.422 176.396 211.443 176.26 211.461C175.93 211.503 175.619 211.573 175.328 211.668C175.041 211.76 174.803 211.9 174.615 212.088C174.431 212.272 174.327 212.523 174.303 212.842C174.271 213.278 174.408 213.607 174.714 213.83C175.025 214.05 175.43 214.159 175.931 214.159ZM187.537 210.441L187.45 211.61H182.932L183.02 210.441H187.537ZM183.579 206.935L182.971 215.094H181.714L182.322 206.935H183.579ZM188.757 206.935L188.149 215.094H186.892L187.499 206.935H188.757ZM191.839 213.246L196.251 206.935H197.7L197.092 215.094H195.835L196.305 208.784L191.915 215.094H190.445L191.052 206.935H192.309L191.839 213.246ZM203.657 210.505L203.57 211.673H199.245L199.332 210.505H203.657ZM200.663 206.935L200.055 215.094H198.798L199.406 206.935H200.663ZM205.817 215.264C205.078 215.264 204.443 215.089 203.912 214.738C203.384 214.388 202.987 213.897 202.722 213.267C202.46 212.637 202.36 211.9 202.423 211.057C202.486 210.207 202.696 209.465 203.052 208.832C203.412 208.198 203.882 207.705 204.462 207.355C205.045 207.004 205.706 206.829 206.445 206.829C207.184 206.829 207.817 207.004 208.345 207.355C208.876 207.705 209.273 208.198 209.535 208.832C209.8 209.465 209.901 210.207 209.838 211.057C209.775 211.9 209.564 212.637 209.204 213.267C208.848 213.897 208.378 214.388 207.795 214.738C207.215 215.089 206.555 215.264 205.817 215.264ZM205.901 214.138C206.462 214.138 206.934 213.995 207.318 213.708C207.701 213.421 207.997 213.044 208.206 212.576C208.415 212.109 208.54 211.603 208.58 211.057C208.621 210.512 208.572 210.004 208.433 209.533C208.294 209.062 208.054 208.681 207.714 208.391C207.373 208.1 206.922 207.955 206.361 207.955C205.8 207.955 205.328 208.1 204.944 208.391C204.56 208.681 204.263 209.062 204.054 209.533C203.845 210.004 203.72 210.512 203.68 211.057C203.639 211.603 203.688 212.109 203.828 212.576C203.967 213.044 204.207 213.421 204.548 213.708C204.889 213.995 205.34 214.138 205.901 214.138Z" fill="white"/>
</g>
<defs>
<filter id="filter0_d_1495_26383" x="-0.00147486" y="-1.00136e-05" width="374.101" height="294.726" filterUnits="userSpaceOnUse" color-interpolation-filters="sRGB">
<feFlood flood-opacity="0" result="BackgroundImageFix"/>
<feColorMatrix in="SourceAlpha" type="matrix" values="0 0 0 0 0 0 0 0 0 0 0 0 0 0 0 0 0 0 127 0" result="hardAlpha"/>
<feOffset dx="7.79137" dy="7.79137"/>
<feGaussianBlur stdDeviation="23.6816"/>
<feComposite in2="hardAlpha" operator="out"/>
<feColorMatrix type="matrix" values="0 0 0 0 0.350962 0 0 0 0 0.350962 0 0 0 0 0.350962 0 0 0 0.08 0"/>
<feBlend mode="normal" in2="BackgroundImageFix" result="effect1_dropShadow_1495_26383"/>
<feBlend mode="normal" in="SourceGraphic" in2="effect1_dropShadow_1495_26383" result="shape"/>
</filter>
</defs>
</svg>
